<svg width="14" height="16" viewBox="0 0 14 16" fill="none" xmlns="http://www.w3.org/2000/svg">
<path fill-rule="evenodd" clip-rule="evenodd" d="M2.525 3.27511C2.15221 3.27511 1.85 3.57732 1.85 3.95011V13.4001C1.85 13.7729 2.15221 14.0751 2.525 14.0751H11.975C12.3478 14.0751 12.65 13.7729 12.65 13.4001V3.95011C12.65 3.57732 12.3478 3.27511 11.975 3.27511H2.525ZM0.5 3.95011C0.5 2.83173 1.40662 1.92511 2.525 1.92511H11.975C13.0934 1.92511 14 2.83173 14 3.95011V13.4001C14 14.5185 13.0934 15.4251 11.975 15.4251H2.525C1.40662 15.4251 0.5 14.5185 0.5 13.4001V3.95011Z" fill="#A6A6A6"/>
<path fill-rule="evenodd" clip-rule="evenodd" d="M4.55 0.575012C4.92279 0.575012 5.225 0.87722 5.225 1.25001V3.95001C5.225 4.3228 4.92279 4.62501 4.55 4.62501C4.17721 4.62501 3.875 4.3228 3.875 3.95001V1.25001C3.875 0.87722 4.17721 0.575012 4.55 0.575012ZM9.95 0.575012C10.3228 0.575012 10.625 0.87722 10.625 1.25001V3.95001C10.625 4.3228 10.3228 4.62501 9.95 4.62501C9.57721 4.62501 9.275 4.3228 9.275 3.95001V1.25001C9.275 0.87722 9.57721 0.575012 9.95 0.575012ZM0.5 6.65001C0.5 6.27722 0.802208 5.97501 1.175 5.97501H13.325C13.6978 5.97501 14 6.27722 14 6.65001C14 7.0228 13.6978 7.32501 13.325 7.32501H1.175C0.802208 7.32501 0.5 7.0228 0.5 6.65001Z" fill="#A6A6A6"/>
</svg>
