<svg width="14" height="8" viewBox="0 0 14 8" fill="none" xmlns="http://www.w3.org/2000/svg">
<path fill-rule="evenodd" clip-rule="evenodd" d="M8.06232 7.54175C7.8748 7.72923 7.62049 7.83454 7.35532 7.83454C7.09016 7.83454 6.83585 7.72923 6.64832 7.54175L0.991324 1.88475C0.895813 1.79251 0.819631 1.68216 0.767222 1.56016C0.714813 1.43816 0.687227 1.30694 0.686073 1.17416C0.684919 1.04138 0.710221 0.909697 0.760502 0.786801C0.810783 0.663905 0.885036 0.552252 0.978929 0.458359C1.07282 0.364467 1.18447 0.290214 1.30737 0.239933C1.43027 0.189652 1.56195 0.16435 1.69472 0.165504C1.8275 0.166658 1.95872 0.194244 2.08073 0.246653C2.20273 0.299062 2.31308 0.375244 2.40532 0.470754L7.35532 5.42075L12.3053 0.470754C12.4939 0.288596 12.7465 0.187802 13.0087 0.19008C13.2709 0.192359 13.5217 0.297527 13.7071 0.482936C13.8925 0.668344 13.9977 0.919156 14 1.18135C14.0023 1.44355 13.9015 1.69615 13.7193 1.88475L8.06232 7.54175Z" fill="#A6A6A6"/>
</svg>
