<svg width="50" height="50" viewBox="0 0 50 50" fill="none" xmlns="http://www.w3.org/2000/svg">
<circle cx="25" cy="25" r="25" fill="#009490"/>
<path fill-rule="evenodd" clip-rule="evenodd" d="M39.8102 16.7465C40.1644 16.7334 40.4949 16.9796 40.4949 17.3559C40.4949 17.6581 40.1927 17.9188 39.9852 18.0765C38.833 18.9728 37.5079 19.6644 36.1641 20.2177C32.2399 21.8422 27.8797 22.4028 23.6838 22.9422C23.4871 22.9675 23.2907 22.9927 23.0948 23.018C20.5275 23.3562 17.9554 23.6031 15.3737 23.7677C14.4172 23.8286 13.4579 23.3189 12.6557 22.8382C11.8285 22.3486 11.0338 21.6971 10.5801 20.836C10.2018 20.1133 10.1534 19.0219 10.8215 18.4486C11.3264 18.0136 12.1065 18.0364 12.7297 18.0807C13.2322 18.1195 13.7276 18.2086 14.2234 18.2978C14.4515 18.3388 14.6798 18.3799 14.9089 18.4161C15.4281 18.4965 15.949 18.588 16.4695 18.6794C17.1131 18.7924 17.7561 18.9053 18.3946 18.997C25.1482 19.9715 32.3782 19.5081 38.7839 17.0716C38.8634 17.0414 38.943 17.0079 39.0232 16.9741C39.2772 16.8672 39.5363 16.7581 39.8102 16.7465ZM29.7113 27.6401C29.88 28.0143 29.9935 28.4202 30.0633 28.8373C30.2493 29.9238 30.1401 31.1009 29.9513 32.1314C29.8164 32.8832 29.6096 33.6211 29.371 34.3445C28.7347 36.2928 27.7997 38.1795 26.3397 39.6492C26.0976 39.8954 25.794 40.1215 25.4261 39.9735C25.3376 39.9376 25.2601 39.8816 25.2048 39.8034C25.0993 39.6415 25.1619 39.4333 25.215 39.2566C25.2218 39.234 25.2284 39.212 25.2345 39.1906C25.3064 38.9493 25.3735 38.7037 25.4371 38.4575C26.072 36.0701 26.6647 33.4973 26.5458 31.011C26.5188 30.439 26.449 29.8588 26.2007 29.347C25.9503 28.8324 25.4883 28.396 24.9247 28.3061C24.6031 28.2508 24.2683 28.3165 23.9751 28.459C23.8368 28.5288 23.7054 28.6146 23.5947 28.7225C23.4121 28.894 23.2849 29.1243 23.1977 29.3608C22.9162 30.1029 23.0151 30.8464 23.1417 31.6065C23.242 32.2019 23.1465 32.8652 22.6043 33.2186C22.1859 33.4883 21.6305 33.5084 21.1658 33.3279C20.6976 33.1481 20.3151 32.785 20.0537 32.3589C19.2452 31.058 19.2279 29.1395 19.6761 27.7155C19.7701 27.4229 19.8801 27.1352 20.0205 26.8641C20.4271 26.0605 21.0606 25.3896 21.8332 24.9255C23.5352 23.8909 25.6149 23.8854 27.3363 24.8889C28.4422 25.5321 29.1829 26.4955 29.7113 27.6401Z" fill="white"/>
<path fill-rule="evenodd" clip-rule="evenodd" d="M22.116 15.1581C22.116 16.5517 23.2454 17.6791 24.6362 17.6791C26.027 17.6791 27.1564 16.5517 27.1564 15.1581C27.1564 14.9507 27.1059 14.7418 27.0202 14.5537C26.8064 14.0965 26.5609 13.8731 26.5851 13.324C26.6169 12.5854 25.6681 12.5743 25.1563 12.5743C24.5995 12.5743 24.0117 12.6518 23.5061 12.9035C23.1043 13.1068 22.7592 13.4174 22.515 13.7943C22.264 14.1816 22.1256 14.6387 22.116 15.1014V15.1581Z" fill="white"/>
</svg>
