<svg width="50" height="50" viewBox="0 0 50 50" fill="none" xmlns="http://www.w3.org/2000/svg">
<circle cx="25" cy="25" r="25" fill="#E60012"/>
<path d="M18.3176 38.2276C17.5786 38.2276 16.9753 37.6545 16.9452 36.9155C16.9301 36.5536 17.0583 36.1991 17.3071 35.9352C17.556 35.6713 17.8953 35.5129 18.2573 35.4903C19.0114 35.4526 19.6524 36.0483 19.6825 36.8024C19.7127 37.564 19.1245 38.1975 18.3704 38.2276H18.3101" fill="white"/>
<path d="M23.3022 12.9579C22.5481 12.9579 21.9448 13.1917 21.4622 13.6818C20.414 14.7225 19.856 16.8792 19.9088 19.7448C19.9691 23.2815 20.8061 30.2116 23.5888 33.786C24.0412 34.3591 24.5238 34.8267 25.0215 35.1585C25.5117 35.4827 26.0697 35.7994 26.9219 35.7994C27.1556 35.7994 27.4045 35.7768 27.6609 35.7316C29.2595 35.347 31.2579 33.5749 32.7359 31.2146C32.9622 30.8526 33.3543 30.6339 33.7766 30.6339C34.0028 30.6339 34.2366 30.7018 34.4251 30.8224C34.7041 30.9959 34.8926 31.2673 34.968 31.5916C35.0435 31.9083 34.9831 32.2401 34.8097 32.5191C32.932 35.5054 30.451 37.6017 28.1812 38.1296C28.1736 38.1296 28.151 38.1296 28.1209 38.1447C27.7061 38.2201 27.2914 38.2578 26.8992 38.2578C25.4287 38.2578 24.3956 37.6998 23.6642 37.2171C22.9327 36.7345 22.254 36.0935 21.6356 35.3017C17.7219 30.2795 17.458 20.8533 17.4353 19.7976C17.3976 17.294 17.7521 13.893 19.7127 11.9474C20.6704 11.0048 21.8694 10.5222 23.272 10.5222H23.4983C24.9084 10.5222 26.1074 11.0048 27.0576 11.9474C29.0107 13.893 29.3727 17.294 29.335 19.7976C29.2972 22.4067 28.8146 27.4667 26.1074 32.0063C25.8887 32.3759 25.4891 32.6021 25.0517 32.6021C24.833 32.6021 24.6143 32.5418 24.4258 32.4286C23.8451 32.0818 23.6491 31.3201 23.996 30.7395C25.8887 27.5647 26.8087 24.0733 26.8766 19.7448C26.9219 16.8717 26.3714 14.7225 25.3307 13.6818C24.8481 13.1992 24.2373 12.9579 23.4907 12.9579H23.2796H23.3022Z" fill="white"/>
</svg>
