<svg width="50" height="50" viewBox="0 0 50 50" fill="none" xmlns="http://www.w3.org/2000/svg">
<path fill-rule="evenodd" clip-rule="evenodd" d="M50 25.0013C50 38.8127 38.8008 50 25.0052 50C11.1966 50 0 38.8127 0 25.0013C0 11.1951 11.1966 0 25.0052 0C38.8008 0 50 11.1951 50 25.0013Z" fill="#FEFEFE"/>
<path fill-rule="evenodd" clip-rule="evenodd" d="M25.0041 50C38.8123 50 50 38.8135 50 25.0068C50 11.192 38.8123 0 25.0041 0C11.1905 0 0 11.192 0 25.0068C0 38.8189 11.1905 50 25.0041 50Z" fill="#0083C9"/>
<mask id="mask0_16_1317" style="mask-type:luminance" maskUnits="userSpaceOnUse" x="0" y="0" width="50" height="50">
<path fill-rule="evenodd" clip-rule="evenodd" d="M25 0C38.8229 0 50 11.1874 50 25C50 38.8126 38.8229 50 25 50C11.1771 50 0 38.8126 0 25" fill="white"/>
</mask>
<g mask="url(#mask0_16_1317)">
<path fill-rule="evenodd" clip-rule="evenodd" d="M25.0056 37.3898C36.1862 37.3898 45.7712 40.5423 49.865 45C51.2483 41.8084 52 38.3009 52 34.6034C52 19.9057 39.9056 8 25.0056 8C10.114 8 -2 19.9197 -2 34.6174C-2 38.3009 -1.2427 41.8084 0.148934 45C4.23442 40.5423 13.825 37.3898 25.0056 37.3898Z" fill="#0083C9"/>
<path fill-rule="evenodd" clip-rule="evenodd" d="M24.9986 37.4198C36.174 37.4198 45.7581 40.5566 49.8624 45C51.2436 41.8266 52 38.318 52 34.6377C52 19.9419 39.9001 8 24.9986 8C10.1055 8 -2 19.9419 -2 34.6377C-2 38.3237 -1.24078 41.8266 0.143191 45C4.23066 40.5566 13.8148 37.4198 24.9986 37.4198Z" fill="#0084CB"/>
<path fill-rule="evenodd" clip-rule="evenodd" d="M25 37.6256C36.1742 37.6256 45.7528 40.6797 49.8596 45C51.2388 41.9156 52 38.514 52 34.9192C52 20.6395 39.8933 9 25 9C10.1011 9 -2 20.6478 -2 34.933C-2 38.5195 -1.24157 41.9156 0.134831 45C4.23034 40.6797 13.8202 37.6256 25 37.6256Z" fill="#0086CC"/>
<path fill-rule="evenodd" clip-rule="evenodd" d="M25.0014 37.6238C36.1816 37.6238 45.7566 40.6782 49.8569 45C51.2396 41.9178 52 38.5159 52 34.9307C52 20.673 39.8961 9 25.0014 9C10.1011 9 -2 20.673 -2 34.9473C-2 38.5159 -1.24808 41.9178 0.131838 45C4.22091 40.6782 13.824 37.6238 25.0014 37.6238Z" fill="#0088CD"/>
<path fill-rule="evenodd" clip-rule="evenodd" d="M24.9958 37.6332C36.1786 37.6332 45.7607 40.6756 49.86 45C51.2434 41.9184 52 38.5149 52 34.9322C52 20.694 39.8996 9 24.9958 9C10.0976 9 -2 20.694 -2 34.9546C-2 38.5148 -1.2349 41.9184 0.134365 45C4.23935 40.6756 13.8242 37.6332 24.9958 37.6332Z" fill="#0089CE"/>
<path fill-rule="evenodd" clip-rule="evenodd" d="M25.5 36.8509C36.4729 36.8509 45.8703 39.8141 49.9021 44C51.2637 41.0148 52 37.6979 52 34.2495C52 20.3871 40.124 9 25.5 9C10.8732 9 -1 20.3871 -1 34.2495C-1 37.6979 -0.260879 41.0148 1.0951 44C5.11581 39.8141 14.5243 36.8509 25.5 36.8509Z" fill="#008BCF"/>
<path fill-rule="evenodd" clip-rule="evenodd" d="M25.5028 36.8565C36.4771 36.8565 45.8694 39.8099 49.9054 44C51.2619 41.0134 52 37.7066 52 34.248C52 20.4247 40.1343 9 25.5028 9C10.8824 9 -1 20.4247 -1 34.2535C-1 37.7066 -0.245165 41.0134 1.10574 44C5.11946 39.8099 14.5284 36.8565 25.5028 36.8565Z" fill="#008DD1"/>
<path fill-rule="evenodd" clip-rule="evenodd" d="M25.0014 37.0698C35.7604 37.0698 44.9984 39.9445 48.9419 44C50.2683 41.1117 51 37.91 51 34.549C51 21.1235 39.3558 10 25.0014 10C10.6551 10 -1 21.1289 -1 34.5571C-1 37.91 -0.273781 41.1171 1.0526 44C5.00158 39.9445 14.2342 37.0698 25.0014 37.0698Z" fill="#008FD2"/>
<path fill-rule="evenodd" clip-rule="evenodd" d="M25.0055 37.0764C35.7704 37.0764 44.9994 39.9422 48.9531 44C50.2774 41.1043 51 37.9011 51 34.5509C51 21.1555 39.3559 10 25.0055 10C10.6606 10 -1 21.1555 -1 34.5563C-1 37.9147 -0.263659 41.1043 1.0634 44C5.00613 39.9422 14.2324 37.0764 25.0055 37.0764Z" fill="#0091D3"/>
<path fill-rule="evenodd" clip-rule="evenodd" d="M24.9904 37.0771C35.7478 37.0771 44.9961 39.9379 48.9344 44C50.2591 41.0981 51 37.9055 51 34.5592C51 21.1578 39.3392 10 24.9904 10C10.6471 10 -1 21.1633 -1 34.5592C-1 37.9055 -0.264658 41.0981 1.06006 44C5.00667 39.9379 14.2384 37.0771 24.9904 37.0771Z" fill="#0093D4"/>
<path fill-rule="evenodd" clip-rule="evenodd" d="M24.9986 37.0966C35.7605 37.0966 45.0003 39.9431 48.9449 44C50.2818 41.1038 51 37.9147 51 34.568C51 21.1924 39.3542 10 24.9986 10C10.6486 10 -1 21.1924 -1 34.5735C-1 37.9174 -0.279044 41.1038 1.05514 44C5.00244 39.9431 14.2395 37.0966 24.9986 37.0966Z" fill="#0094D6"/>
<path fill-rule="evenodd" clip-rule="evenodd" d="M24.9848 37.3043C35.7631 37.3043 44.9877 40.0723 48.9368 44C50.2634 41.2022 51 38.1098 51 34.858C51 21.8802 39.3466 11 24.9848 11C10.6534 11 -1 21.891 -1 34.858C-1 38.1098 -0.277201 41.2022 1.05762 44C4.9984 40.0723 14.2286 37.3043 24.9848 37.3043Z" fill="#0096D7"/>
<path fill-rule="evenodd" clip-rule="evenodd" d="M24.9917 37.3053C35.7676 37.3053 45.0026 40.0632 48.9342 44C50.2642 41.1903 51 38.0921 51 34.855C51 21.9065 39.355 11 24.9917 11C10.6478 11 -1 21.9201 -1 34.874C-1 38.0975 -0.27531 41.1958 1.0519 44C4.99466 40.0632 14.2296 37.3053 24.9917 37.3053Z" fill="#0098D8"/>
<path fill-rule="evenodd" clip-rule="evenodd" d="M24.9944 37.31C35.7642 37.31 44.9914 40.0787 48.948 44C50.2649 41.2093 51 38.1305 51 34.876C51 21.9488 39.3588 11 24.9944 11C10.6468 11 -1 21.9488 -1 34.8843C-1 38.1305 -0.276076 41.2093 1.04926 44C4.99186 40.0787 14.2275 37.31 24.9944 37.31Z" fill="#009AD9"/>
<path fill-rule="evenodd" clip-rule="evenodd" d="M25.0028 37.327C35.7652 37.327 45.0032 40.0747 48.9564 44C50.2713 41.1998 51 38.1231 51 34.8834C51 21.9797 39.3554 11 25.0028 11C10.653 11 -1 21.9797 -1 34.8834C-1 38.1231 -0.282508 41.1998 1.04918 44C4.99678 40.0747 14.232 37.327 25.0028 37.327Z" fill="#009CDB"/>
<path fill-rule="evenodd" clip-rule="evenodd" d="M24.9958 37.3409C35.7642 37.3409 44.9958 40.0809 48.9398 44C50.275 41.2154 51 38.1325 51 34.8991C51 22.0019 39.3499 11 24.9958 11C10.6613 11 -1 22.0019 -1 34.9047C-1 38.1325 -0.26662 41.2154 1.05458 44C4.993 40.0809 14.2302 37.3409 24.9958 37.3409Z" fill="#009EDC"/>
<path fill-rule="evenodd" clip-rule="evenodd" d="M24.9958 37.5515C35.7684 37.5515 44.9949 40.205 48.9347 44C50.2676 41.3029 51 38.3116 51 35.1868C51 22.6957 39.3462 12 24.9958 12C10.651 12 -1 22.7012 -1 35.1868C-1 38.3116 -0.273218 41.3084 1.05688 44C4.99946 40.205 14.24 37.5515 24.9958 37.5515Z" fill="#00A0DD"/>
<path fill-rule="evenodd" clip-rule="evenodd" d="M24.9972 37.5621C35.7562 37.5621 45.0015 40.2196 48.9433 44C50.2657 41.3095 51 38.3226 51 35.2066C51 22.7234 39.3547 12 24.9972 12C10.6537 12 -1 22.7234 -1 35.2066C-1 38.3226 -0.265664 41.3095 1.05389 44C5.00693 40.2196 14.2438 37.5621 24.9972 37.5621Z" fill="#00A2DE"/>
<path fill-rule="evenodd" clip-rule="evenodd" d="M24.9929 37.5579C35.7648 37.5579 44.9962 40.2117 48.9461 44C50.2721 41.2937 51 38.3189 51 35.1947C51 22.7451 39.3535 12 24.9929 12C10.6436 12 -1 22.7451 -1 35.203C-1 38.3189 -0.263632 41.2937 1.05675 44C5.00098 40.2117 14.238 37.5579 24.9929 37.5579Z" fill="#00A4E0"/>
<path fill-rule="evenodd" clip-rule="evenodd" d="M24.9958 37.5699C35.7641 37.5699 45.0075 40.2172 48.9459 44C50.2813 41.3024 51 38.3314 51 35.2182C51 22.7903 39.363 12 24.9958 12C10.6483 12 -1 22.7903 -1 35.2182C-1 38.3231 -0.267207 41.308 1.05974 44C5.00098 40.2172 14.2472 37.5699 24.9958 37.5699Z" fill="#00A6E1"/>
<path fill-rule="evenodd" clip-rule="evenodd" d="M25.4958 37.7809C36.0396 37.7809 45.1009 40.3563 48.9669 44C50.2797 41.3974 51 38.5358 51 35.5053C51 23.4732 39.5746 13 25.4958 13C11.431 13 0 23.4732 0 35.5053C0 38.5358 0.723128 41.3974 2.02476 44C5.88793 40.3563 14.9548 37.7809 25.4958 37.7809Z" fill="#00A8E2"/>
<path fill-rule="evenodd" clip-rule="evenodd" d="M24.9973 37.7945C35.3435 37.7945 44.2293 40.3586 48.0172 44C49.3081 41.3974 50 38.5338 50 35.5245C50 23.49 38.8005 13 24.9973 13C11.2077 13 0 23.5037 0 35.5245C0 38.5283 0.708347 41.4029 1.97462 44C5.7707 40.3586 14.6538 37.7945 24.9973 37.7945Z" fill="#00AAE4"/>
<path fill-rule="evenodd" clip-rule="evenodd" d="M25.0055 37.7917C35.3538 37.7917 44.2348 40.3515 48.0307 44C49.3116 41.3987 50 38.5258 50 35.52C50 23.5189 38.8151 13 25.0055 13C11.2095 13 0 23.5245 0 35.52C0 38.5258 0.704882 41.3987 1.98574 44C5.77345 40.3515 14.6572 37.7917 25.0055 37.7917Z" fill="#00ADE5"/>
<path fill-rule="evenodd" clip-rule="evenodd" d="M24.9959 37.8056C35.3545 37.8056 44.2364 40.3705 48.0256 44C49.2933 41.4155 50 38.5488 50 35.5424C50 23.5475 38.8027 13 24.9959 13C11.2083 13 0 23.5615 0 35.5424C0 38.5432 0.706704 41.4183 1.98537 44C5.76912 40.3705 14.6538 37.8056 24.9959 37.8056Z" fill="#00AFE6"/>
<path fill-rule="evenodd" clip-rule="evenodd" d="M25 37.8203C35.3459 37.8203 44.2437 40.3693 48.0279 44C49.2994 41.4087 50 38.5385 50 35.5529C50 23.5934 38.8046 13 25 13C11.2037 13 0 23.5934 0 35.5529C0 38.5385 0.692299 41.4228 1.97209 44C5.76456 40.3693 14.6569 37.8203 25 37.8203Z" fill="#00B1E8"/>
<path fill-rule="evenodd" clip-rule="evenodd" d="M25.0041 38.0242C35.3525 38.0242 44.2273 40.4992 48.026 44C49.3061 41.5112 50 38.7392 50 35.8379C50 24.2713 38.8001 14 25.0041 14C11.2082 14 0 24.2713 0 35.8379C0 38.7392 0.699475 41.5112 1.98231 44C5.7755 40.4992 14.6586 38.0242 25.0041 38.0242Z" fill="#00B3E9"/>
<path fill-rule="evenodd" clip-rule="evenodd" d="M24.9931 38.0322C35.3336 38.0322 44.2266 40.4892 48.0173 44C49.2984 41.5014 50 38.731 50 35.8525C50 24.3023 38.8054 14 24.9931 14C11.2002 14 0 24.3023 0 35.8525C0 38.731 0.696024 41.5097 1.96606 44C5.76507 40.4892 14.647 38.0322 24.9931 38.0322Z" fill="#00B5EA"/>
<path fill-rule="evenodd" clip-rule="evenodd" d="M24.9875 38.0336C35.3433 38.0336 44.2285 40.4939 48.0233 44C49.3022 41.4977 50 38.7437 50 35.8611C50 24.342 38.8073 14 24.9875 14C11.2121 14 0 24.342 0 35.8611C0 38.7437 0.697804 41.5144 1.98221 44C5.76592 40.4939 14.6594 38.0336 24.9875 38.0336Z" fill="#00B8EC"/>
<path fill-rule="evenodd" clip-rule="evenodd" d="M24.9861 38.0536C35.3351 38.0536 44.2261 40.4948 48.0122 44C49.2974 41.5024 50 38.762 50 35.8692C50 24.3659 38.809 14 24.9861 14C11.1994 14 0 24.3659 0 35.8692C0 38.7563 0.688636 41.508 1.96554 44C5.76559 40.4948 14.6426 38.0536 24.9861 38.0536Z" fill="#03BAED"/>
<path fill-rule="evenodd" clip-rule="evenodd" d="M24.9958 38.2705C35.3408 38.2705 44.232 40.6273 48.0233 44C49.301 41.6102 50 38.9505 50 36.1725C50 25.0604 38.8134 15 24.9958 15C11.1978 15 0 25.0604 0 36.1725C0 38.9505 0.698988 41.6102 1.97953 44C5.76805 40.6273 14.6452 38.2705 24.9958 38.2705Z" fill="#12BCEF"/>
<path fill-rule="evenodd" clip-rule="evenodd" d="M24.9944 38.275C35.3354 38.275 44.2351 40.6238 48.0176 44C49.3018 41.59 50 38.9552 50 36.1732C50 25.0813 38.8066 15 24.9944 15C11.199 15 0 25.0813 0 36.1732C0 38.9469 0.689771 41.6095 1.96557 44C5.76492 40.6238 14.6506 38.275 24.9944 38.275Z" fill="#1BBFF0"/>
<path fill-rule="evenodd" clip-rule="evenodd" d="M25 38.2852C35.3475 38.2852 44.2329 40.6395 48.0289 44C49.3083 41.6009 50 38.9691 50 36.1859C50 25.1151 38.8145 15 25 15C11.1967 15 0 25.1151 0 36.1859C0 38.9607 0.697334 41.6093 1.97953 44C5.76988 40.6395 14.6553 38.2852 25 38.2852Z" fill="#20C3F3"/>
<path fill-rule="evenodd" clip-rule="evenodd" d="M24.9958 38.2767C35.3365 38.2767 44.2439 40.6365 48.0372 44C49.3101 41.612 50 38.9646 50 36.1904C50 25.1159 38.8172 15 24.9958 15C11.1968 15 0 25.1159 0 36.1904C0 38.959 0.695579 41.612 1.97128 44C5.75613 40.6365 14.6494 38.2767 24.9958 38.2767Z" fill="#32C5F3"/>
<path fill-rule="evenodd" clip-rule="evenodd" d="M25.0042 38.2772C35.343 38.2772 44.2302 40.6378 48.0213 44C49.2953 41.6053 50 38.9666 50 36.1974C50 25.1263 38.81 15 25.0042 15C11.2013 15 0 25.1263 0 36.1974C0 38.961 0.707481 41.611 1.97869 44C5.76414 40.6378 14.657 38.2772 25.0042 38.2772Z" fill="#3FC6F3"/>
<path fill-rule="evenodd" clip-rule="evenodd" d="M25 38.4783C35.332 38.4783 44.2327 40.7498 48.0183 44C49.2943 41.6926 50 39.1344 50 36.4604C50 25.7753 38.8098 16 25 16C11.2014 16 0 25.7753 0 36.4604C0 39.1344 0.697268 41.6926 1.97042 44C5.7701 40.7498 14.6539 38.4783 25 38.4783Z" fill="#4AC8F4"/>
<path fill-rule="evenodd" clip-rule="evenodd" d="M25.0028 38.4954C35.346 38.4954 44.2334 40.7594 48.0184 44C49.3018 41.6972 50 39.1474 50 36.4673C50 25.7939 38.8088 16 25.0028 16C11.2053 16 0 25.7939 0 36.4673C0 39.1391 0.70104 41.7027 1.97026 44C5.76379 40.7594 14.6512 38.4954 25.0028 38.4954Z" fill="#54C9F4"/>
<path fill-rule="evenodd" clip-rule="evenodd" d="M24.9972 38.4799C35.3402 38.4799 44.2284 40.7443 48.0186 44C49.2895 41.6825 50 39.1332 50 36.4639C50 25.7894 38.8049 16 24.9972 16C11.1951 16 0 25.7894 0 36.4639C0 39.1332 0.693501 41.6881 1.97294 44C5.76596 40.7443 14.6343 38.4799 24.9972 38.4799Z" fill="#5CCBF4"/>
<path fill-rule="evenodd" clip-rule="evenodd" d="M25.0028 38.4871C35.351 38.4871 44.2419 40.7546 48.0296 44C49.3026 41.6819 50 39.1418 50 36.4753C50 25.8035 38.8183 16 25.0028 16C11.193 16 0 25.8035 0 36.4753C0 39.1418 0.694602 41.6987 1.96757 44C5.75811 40.7546 14.6575 38.4871 25.0028 38.4871Z" fill="#64CDF5"/>
<path fill-rule="evenodd" clip-rule="evenodd" d="M25.0014 38.5041C35.3465 38.5041 44.2414 40.7641 48.019 44C49.299 41.6947 50 39.1518 50 36.476C50 25.8066 38.8006 16 25.0014 16C11.2108 16 0 25.8208 0 36.476C0 39.1518 0.698189 41.6947 1.96969 44C5.77 40.7641 14.6535 38.5041 25.0014 38.5041Z" fill="#6CCEF5"/>
<path fill-rule="evenodd" clip-rule="evenodd" d="M25 38.6779C34.9311 38.6779 43.4603 40.8683 47.0989 44C48.3154 41.7713 49 39.3092 49 36.7402C49 26.4556 38.2479 17 25 17C11.7549 17 1 26.4556 1 36.7402C1 39.3092 1.6819 41.7768 2.89567 44C6.53972 40.8683 15.0689 38.6779 25 38.6779Z" fill="#73D0F5"/>
<path fill-rule="evenodd" clip-rule="evenodd" d="M24.9986 38.6857C34.9216 38.6857 43.4566 40.8689 47.0957 44C48.3279 41.7836 49 39.3213 49 36.7401C49 26.4624 38.2547 17 24.9986 17C11.7508 17 1 26.4624 1 36.7401C1 39.3213 1.67209 41.7836 2.88787 44C6.53247 40.8689 15.0593 38.6857 24.9986 38.6857Z" fill="#7AD2F6"/>
<path fill-rule="evenodd" clip-rule="evenodd" d="M25.0055 38.6885C34.9414 38.6885 43.4685 40.8726 47.0987 44C48.3325 41.7658 49 39.3173 49 36.7464C49 26.4684 38.2598 17 25.0055 17C11.7621 17 1 26.4684 1 36.7464C1 39.3173 1.68392 41.7713 2.89855 44C6.53699 40.8726 15.0641 38.6968 25.0055 38.6885Z" fill="#81D3F6"/>
<path fill-rule="evenodd" clip-rule="evenodd" d="M25.0014 38.6767C34.9373 38.6767 43.4648 40.8833 47.112 44C48.3204 41.771 49 39.3208 49 36.7502C49 26.4732 38.2612 17 25.0014 17C11.7498 17 1 26.4732 1 36.7502C1 39.3208 1.67135 41.7794 2.89073 44C6.52697 40.8833 15.0599 38.6823 25.0014 38.6767Z" fill="#87D5F6"/>
<path fill-rule="evenodd" clip-rule="evenodd" d="M25.0041 38.8945C34.9327 38.8945 43.4625 40.9937 47.0993 44C48.3226 41.8682 49 39.5055 49 37.0315C49 27.1193 38.2541 18 25.0041 18C11.7624 18 1 27.1193 1 37.0315C1 39.5055 1.67745 41.8736 2.89521 44C6.54026 40.9937 15.0728 38.8945 25.0041 38.8945Z" fill="#8ED7F7"/>
<path fill-rule="evenodd" clip-rule="evenodd" d="M25.0014 38.8869C34.9349 38.8869 43.4619 40.9966 47.099 44C48.3215 41.8575 49 39.4991 49 37.0231C49 27.1385 38.2561 18 25.0014 18C11.7549 18 1 27.1385 1 37.0231C1 39.4991 1.67029 41.8629 2.88725 44C6.53265 40.9966 15.0679 38.8869 25.0014 38.8869Z" fill="#94D9F7"/>
<path fill-rule="evenodd" clip-rule="evenodd" d="M24.9945 38.8908C34.9246 38.8908 43.4573 40.9857 47.0882 44C48.3123 41.8528 49 39.4909 49 37.0245C49 27.131 38.2502 18 24.9945 18C11.7415 18 1 27.1365 1 37.0245C1 39.4909 1.66567 41.8528 2.89249 44C6.53444 40.9857 15.0617 38.8908 24.9945 38.8908Z" fill="#9ADBF7"/>
<path fill-rule="evenodd" clip-rule="evenodd" d="M25.0055 38.8847C34.9438 38.8847 43.4607 40.984 47.0994 44C48.3196 41.8481 49 39.4913 49 37.0153C49 27.131 38.2492 18 25.0055 18C11.7536 18 1 27.131 1 37.0153C1 39.4996 1.68312 41.8536 2.89234 44C6.5338 40.984 15.07 38.8847 25.0055 38.8847Z" fill="#A0DDF8"/>
<path fill-rule="evenodd" clip-rule="evenodd" d="M25.0041 38.8893C34.938 38.8893 43.4646 40.9927 47.1208 44C48.3239 41.8575 49 39.4974 49 37.0258C49 27.1558 38.2604 18 25.0041 18C11.7479 18 1 27.1586 1 37.0258C1 39.4974 1.66502 41.8575 2.88192 44C6.52986 40.9927 15.0647 38.8893 25.0041 38.8893Z" fill="#A6DEF8"/>
<path fill-rule="evenodd" clip-rule="evenodd" d="M25.0014 39.1005C34.9334 39.1005 43.465 41.1127 47.1025 44C48.3206 41.9446 49 39.6785 49 37.3097C49 27.8051 38.2477 19 25.0014 19C11.7495 19 1 27.8051 1 37.2962C1 39.6785 1.67392 41.9527 2.90299 44C6.53772 41.1127 15.0666 39.1005 25.0014 39.1005Z" fill="#ACE0F9"/>
<path fill-rule="evenodd" clip-rule="evenodd" d="M25.0042 39.0865C34.9367 39.0865 43.4665 41.1025 47.1131 44C48.3194 41.9378 49 39.6742 49 37.2936C49 27.8094 38.2623 19 25.0042 19C11.746 19 1 27.8094 1 37.2936C1 39.6742 1.67508 41.9432 2.88968 44C6.53069 41.1025 15.0661 39.0865 25.0042 39.0865Z" fill="#B2E2F9"/>
<path fill-rule="evenodd" clip-rule="evenodd" d="M25.0028 39.0992C34.9335 39.0992 43.4626 41.1017 47.097 44C48.3186 41.9372 49 39.6744 49 37.2939C49 27.8018 38.2548 19 25.0028 19C11.7507 19 1 27.81 1 37.2939C1 39.6799 1.67036 41.9372 2.8892 44C6.53463 41.1017 15.0582 39.0992 25.0028 39.0992Z" fill="#B8E4F9"/>
<path fill-rule="evenodd" clip-rule="evenodd" d="M25.0028 39.0988C34.9323 39.0988 43.4611 41.1189 47.0973 44C48.3177 41.944 49 39.6728 49 37.2995C49 27.8089 38.2606 19 25.0028 19C11.7588 19 1 27.8144 1 37.2995C1 39.6783 1.67953 41.944 2.89715 44C6.53611 41.1189 15.0705 39.0988 25.0028 39.0988Z" fill="#BDE6FA"/>
<path fill-rule="evenodd" clip-rule="evenodd" d="M25.0014 39.0912C34.9337 39.0912 43.4601 41.112 47.0969 44C48.3221 41.9347 49 39.6805 49 37.3067C49 27.8198 38.262 19 25.0014 19C11.738 19 1 27.8198 1 37.3067C1 39.6888 1.66678 41.9347 2.88088 44C6.52874 41.112 15.0636 39.1051 25.0014 39.0912Z" fill="#C3E8FA"/>
<path fill-rule="evenodd" clip-rule="evenodd" d="M24.9986 39.2887C34.9285 39.2887 43.4593 41.2264 47.0919 44C48.3213 42.0246 49 39.8531 49 37.5767C49 28.4766 38.2524 20 24.9986 20C11.7504 20 1 28.4766 1 37.5767C1 39.8585 1.67312 42.0246 2.88862 44C6.52402 41.2264 15.0632 39.2968 24.9986 39.2887Z" fill="#C9EAFA"/>
<path fill-rule="evenodd" clip-rule="evenodd" d="M25.0014 39.2991C34.9323 39.2991 43.4732 41.2407 47.0974 44C48.3175 42.0341 49 39.8623 49 37.585C49 28.4838 38.2556 20 25.0014 20C11.7444 20 1 28.4838 1 37.585C1 39.8678 1.66856 42.0341 2.8859 44C6.53514 41.2407 15.0593 39.2991 25.0014 39.2991Z" fill="#CEECFB"/>
<path fill-rule="evenodd" clip-rule="evenodd" d="M24.9986 39.3042C34.9367 39.3042 43.455 41.2349 47.1005 44C48.3194 42.0366 49 39.8605 49 37.5807C49 28.4918 38.2559 20 24.9986 20C11.7414 20 1 28.4918 1 37.5807C1 39.8687 1.67778 42.0366 2.88553 44C6.53385 41.2349 15.0661 39.3042 24.9986 39.3042Z" fill="#D4EEFB"/>
<path fill-rule="evenodd" clip-rule="evenodd" d="M25.0028 39.3027C34.9379 39.3027 43.4517 41.2393 47.1012 44C48.3131 42.0387 49 39.8631 49 37.5914C49 28.5045 38.2524 20 25.0028 20C11.7449 20 1 28.5045 1 37.5804C1 39.8686 1.67574 42.0497 2.90157 44C6.54276 41.2393 15.0677 39.3137 25.0028 39.3027Z" fill="#D9F0FB"/>
<path fill-rule="evenodd" clip-rule="evenodd" d="M25.0042 39.3012C34.9421 39.3012 43.4675 41.2399 47.1036 44C48.3147 42.0254 49 39.8654 49 37.5865C49 28.5126 38.2594 20 25.0042 20C11.7434 20 1 28.5126 1 37.5782C1 39.8654 1.67688 42.0254 2.8936 44C6.53814 41.2399 15.0747 39.3012 25.0042 39.3012Z" fill="#DFF2FC"/>
<path fill-rule="evenodd" clip-rule="evenodd" d="M25.0042 39.4984C34.9399 39.4984 43.4746 41.3589 47.1003 44C48.3191 42.1181 49 40.0464 49 37.8544C49 29.1505 38.2574 21 25.0042 21C11.7426 21 1 29.1505 1 37.8544C1 40.049 1.66966 42.1181 2.8773 44C6.52822 41.3589 15.0741 39.4984 25.0042 39.4984Z" fill="#E5F4FC"/>
<path fill-rule="evenodd" clip-rule="evenodd" d="M25.0056 39.5045C34.9388 39.5045 43.4613 41.3442 47.0958 44C48.3129 42.1172 49 40.0405 49 37.8534C49 29.1479 38.248 21 25.0056 21C11.7492 21 1 29.1479 1 37.848C1 40.0459 1.68147 42.1172 2.89016 44C6.54429 41.3442 15.0781 39.5045 25.0056 39.5045Z" fill="#EAF6FD"/>
<path fill-rule="evenodd" clip-rule="evenodd" d="M25.0042 39.5037C34.939 39.5037 43.461 41.357 47.104 44C48.3175 42.1141 49 40.0437 49 37.8647C49 29.1678 38.2534 21 25.0042 21C11.7438 21 1 29.1678 1 37.8647C1 40.0464 1.67412 42.1141 2.88753 44C6.539 41.357 15.0722 39.5037 25.0042 39.5037Z" fill="#F0F8FD"/>
<path fill-rule="evenodd" clip-rule="evenodd" d="M25 39.5171C34.9285 39.5171 43.4451 41.3633 47.0987 44C48.3137 42.1319 49 40.0477 49 37.8732C49 29.1699 38.2418 21 25 21C11.7414 21 1 29.1699 1 37.865C1 40.0641 1.67784 42.1319 2.88164 44C6.53803 41.3633 15.0659 39.5253 25 39.5171Z" fill="#F6FBFD"/>
<path fill-rule="evenodd" clip-rule="evenodd" d="M25 40.3092C34.9432 40.3092 43.4579 42.2436 47.1066 45C48.3153 43.0254 49 40.864 49 38.5904C49 29.5365 38.2623 21 25 21C11.7349 21 1 29.5365 1 38.5904C1 40.8783 1.67058 43.0254 2.87931 45C6.53651 42.2436 15.054 40.3092 25 40.3092Z" fill="#FEFEFE"/>
<path fill-rule="evenodd" clip-rule="evenodd" d="M25 31C16.4742 31 8.54298 32.4662 2 34.9247C5.92966 43.8247 14.7403 50 25 50C35.2597 50 44.0786 43.8191 48 34.9247C41.4625 32.4662 33.5341 31 25 31Z" fill="#0083C9"/>
</g>
</svg>
