<svg width="50" height="50" viewBox="0 0 50 50" fill="none" xmlns="http://www.w3.org/2000/svg">
<path d="M50 25C50 38.8071 38.8071 50 25 50C11.1929 50 0 38.8071 0 25C0 11.1929 11.1929 0 25 0C38.8071 0 50 11.1929 50 25Z" fill="#E7231E"/>
<g clip-path="url(#clip0_16_1165)">
<path d="M7 22.9167C7 22.4426 7.38337 22.0662 7.86619 22.0662H10.2178C12.0977 22.0662 13.2334 23.1593 13.2334 24.7407V24.7628C13.2334 26.5537 11.8154 27.4814 10.0493 27.4814H8.73239V29.0833C8.73239 29.559 8.34902 29.9339 7.86619 29.9339C7.38337 29.9339 7 29.5574 7 29.0833L7 22.9167ZM10.1055 25.9661C10.9717 25.9661 11.4785 25.4574 11.4785 24.7943V24.7722C11.4785 24.0099 10.938 23.6003 10.0718 23.6003H8.73239V25.9646H10.1055V25.9661Z" fill="white"/>
<path d="M12.9575 28.773L15.7037 22.6852C15.8945 22.2646 16.2442 22.011 16.7174 22.011H16.8185C17.2917 22.011 17.6285 22.2646 17.8194 22.6852L20.5656 28.7746C20.6217 28.8959 20.6554 29.0061 20.6554 29.1164C20.6554 29.57 20.2945 29.9339 19.8341 29.9339C19.4283 29.9339 19.1588 29.7023 19.0016 29.3479L18.4723 28.1319H15.0059L14.4541 29.403C14.3081 29.7338 14.0146 29.9339 13.6553 29.9339C13.2045 29.9339 12.8564 29.5795 12.8564 29.1384C12.8564 29.0171 12.9014 28.8959 12.9575 28.7746V28.773ZM17.8306 26.6293L16.7399 24.076L15.6475 26.6293H17.8306Z" fill="white"/>
<path d="M22.4872 26.8844L19.9448 23.4916C19.8213 23.3262 19.7314 23.1262 19.7314 22.8836C19.7314 22.43 20.1148 22.0662 20.5976 22.0662C20.9922 22.0662 21.2393 22.2756 21.4526 22.5859L23.3663 25.2936L25.3136 22.5639C25.5269 22.2552 25.7868 22.0551 26.1461 22.0551C26.6754 22.0551 26.9898 22.419 26.9898 22.8836C26.9898 23.1152 26.8775 23.3262 26.7653 23.4806L24.2228 26.8513V29.0833C24.2228 29.559 23.8395 29.9338 23.3566 29.9338C22.8738 29.9338 22.4904 29.5574 22.4904 29.0833V26.8844H22.4872Z" fill="white"/>
<path d="M27.0411 26.0228V26.0008C27.0411 23.8019 28.7286 22 31.1491 22C32.3313 22 33.1302 22.3087 33.783 22.7844C33.9627 22.9167 34.1199 23.1593 34.1199 23.4586C34.1199 23.9232 33.7381 24.2871 33.2649 24.2871C33.0291 24.2871 32.8719 24.1989 32.7468 24.1217C32.2624 23.7673 31.7571 23.5688 31.1379 23.5688C29.8098 23.5688 28.8537 24.6525 28.8537 25.9772V25.9992C28.8537 27.3255 29.7873 28.4296 31.1379 28.4296C31.8694 28.4296 32.3538 28.2091 32.8478 27.8216C32.9826 27.7114 33.1622 27.6342 33.366 27.6342C33.8055 27.6342 34.176 27.9886 34.176 28.4186C34.176 28.6832 34.0413 28.8943 33.8841 29.0266C33.1751 29.6346 32.3426 29.9984 31.0818 29.9984C28.7639 29.9984 27.0427 28.2422 27.0427 26.0213L27.0411 26.0228Z" fill="white"/>
<path d="M34.6284 26.0228V26.0008C34.6284 23.8019 36.3945 22 38.8263 22C41.258 22 43.0016 23.7783 43.0016 25.9772V25.9992C43.0016 28.1981 41.2356 30 38.8038 30C36.372 30 34.6284 28.2201 34.6284 26.0228ZM41.189 26.0228V26.0008C41.189 24.6745 40.1993 23.5704 38.8038 23.5704C37.4083 23.5704 36.441 24.6541 36.441 25.9787V26.0008C36.441 27.327 37.4307 28.4312 38.8263 28.4312C40.2218 28.4312 41.189 27.3475 41.189 26.0228Z" fill="white"/>
</g>
<defs>
<clipPath id="clip0_16_1165">
<rect width="36" height="8" fill="white" transform="translate(7 22)"/>
</clipPath>
</defs>
</svg>
