<svg width="50" height="50" viewBox="0 0 50 50" fill="none" xmlns="http://www.w3.org/2000/svg">
<circle cx="25" cy="25" r="25" fill="#0060A9"/>
<path d="M44.1132 28.6269C44.1132 28.6269 42.1921 28.781 42.1462 27.2318V24.2336C42.1462 24.2336 41.9071 22.5795 44.0592 22.5795C44.0592 22.5795 45.4578 22.5353 45.828 23.3664C45.828 23.3664 46.0131 23.5893 45.9623 24.509H44.4703V24.0368C44.4703 24.0368 44.467 23.6565 44.0805 23.6565C44.0805 23.6565 43.6776 23.6746 43.6776 23.9942V27.0941C43.6776 27.0941 43.6595 27.5105 44.1148 27.5105C44.1148 27.5105 44.4899 27.5023 44.4899 27.0646V26.1679H44.0821V25.3319H46V27.0941C46 27.0941 45.995 27.463 45.8411 27.681C45.8411 27.681 45.6839 27.917 45.6249 27.9613C45.6249 27.9613 45.109 28.6269 44.1116 28.6269" fill="white"/>
<path d="M40.1627 22.8057H38.6707L38.7755 26.2384H38.7116L37.1967 22.8057H35.3853V28.4662H36.8593L36.7708 25.004H36.8363L38.4054 28.4662H40.1627V22.8057Z" fill="white"/>
<path d="M30.9158 22.7811H29.2976V27.0269C29.2976 27.0269 29.1322 28.6334 31.3973 28.6334C31.3973 28.6334 33.3676 28.658 33.3676 27.1023V22.7844H31.7871V27.0515C31.7871 27.0515 31.8084 27.5171 31.376 27.5171C31.376 27.5171 30.9207 27.5416 30.9207 27.063L30.9174 22.7844L30.9158 22.7811Z" fill="white"/>
<path d="M27.4404 24.5336V23.8237C27.4404 23.8237 27.5518 22.6615 25.6847 22.609C25.6847 22.609 24.2155 22.5123 23.7946 23.3041C23.7946 23.3041 23.6292 23.4811 23.6292 24.0959V24.5401C23.6292 24.5401 23.6145 25.0532 23.8732 25.3844C23.8732 25.3844 24.0223 25.6007 24.3859 25.8401C24.3859 25.8401 25.1262 26.2384 25.57 26.4663C25.57 26.4663 26.0188 26.7237 25.9582 27.1318C25.9582 27.1318 25.9221 27.5499 25.4898 27.5335C25.4898 27.5335 25.0934 27.5154 25.0934 27.104V26.6204H23.508V27.322C23.508 27.322 23.4638 28.6597 25.5012 28.6597C25.5012 28.6597 27.4486 28.699 27.5386 27.2859V26.7171C27.5386 26.7171 27.6074 25.8499 26.8508 25.3942C26.8508 25.3942 26.4462 25.145 26.194 25.0483C26.194 25.0483 25.421 24.6877 25.2687 24.5172C25.2687 24.5172 24.9657 24.2319 25.1425 23.9024C25.1425 23.9024 25.2162 23.6844 25.5356 23.6844C25.5356 23.6844 25.9516 23.7074 25.9516 24.05V24.5319H27.4387L27.4404 24.5336Z" fill="white"/>
<path d="M15.5612 22.8075L15.4368 28.4696H16.9075L16.9272 24.2025H17.0418L17.823 28.468H19.3708L20.1422 24.2042H20.2454L20.2798 28.4696H21.7603L21.6015 22.8075H19.1382L18.6403 25.9057H18.524L18.0491 22.8075H15.5612Z" fill="white"/>
<path d="M13.9497 28.4596L12.9703 22.7992H10.4677L9.49158 28.4596H11.0737L11.6551 24.0713H11.7845L12.3659 28.4596H13.9497Z" fill="white"/>
<path d="M7.93572 24.5336L7.93244 23.8237C7.93244 23.8237 8.04545 22.6615 6.17836 22.609C6.17836 22.609 4.71088 22.5123 4.28833 23.3041C4.28833 23.3041 4.12291 23.4811 4.12291 24.0959V24.5401C4.12291 24.5401 4.10653 25.0532 4.36694 25.3844C4.36694 25.3844 4.51598 25.6007 4.88121 25.8401C4.88121 25.8401 5.61986 26.2384 6.06371 26.4663C6.06371 26.4663 6.51247 26.7237 6.45187 27.1318C6.45187 27.1318 6.41584 27.5499 5.98509 27.5335C5.98509 27.5335 5.58711 27.5154 5.58711 27.104V26.6204H4.00008V27.322C4.00008 27.322 3.95586 28.6597 5.99492 28.6597C5.99492 28.6597 7.94063 28.699 8.03235 27.2859V26.7171C8.03235 26.7171 8.0995 25.8499 7.34283 25.3942C7.34283 25.3942 6.9383 25.145 6.68935 25.0483C6.68935 25.0483 5.91467 24.6877 5.76072 24.5172C5.76072 24.5172 5.45772 24.2319 5.6346 23.9024C5.6346 23.9024 5.70994 23.6844 6.02768 23.6844C6.02768 23.6844 6.44368 23.7074 6.44368 24.05V24.5319H7.93244L7.93572 24.5336Z" fill="white"/>
</svg>
