<svg width="50" height="50" viewBox="0 0 50 50" fill="none" xmlns="http://www.w3.org/2000/svg">
<mask id="mask0_16_1375" style="mask-type:alpha" maskUnits="userSpaceOnUse" x="0" y="0" width="50" height="50">
<circle cx="25" cy="25" r="25" fill="#D9D9D9"/>
</mask>
<g mask="url(#mask0_16_1375)">
<path d="M6.80842 0H26.9565C29.769 0 31.5183 2.26999 30.8622 5.06419L21.4818 44.9436C20.8198 47.7281 18.0039 50 15.1894 50H-4.9567C-7.76527 50 -9.51847 47.7281 -8.86237 44.9436L0.521933 5.06419C1.17803 2.26999 3.99249 0 6.80842 0Z" fill="#E21836"/>
<path d="M25.5259 0H48.2834C51.0453 0 49.7999 2.26999 49.1502 5.06419L39.9382 44.9436C39.2918 47.7281 39.4934 50 36.7257 50H13.9682C11.2004 50 9.48759 47.7281 10.1378 44.9436L19.3493 5.06419C20.0034 2.26999 22.762 0 25.5259 0Z" fill="#00447C"/>
<path d="M46.8069 0H66.9558C69.7724 0 71.5217 2.26999 70.8602 5.06419L61.4809 44.9436C60.8189 47.7281 58.0008 50 55.1848 50H35.0452C32.2272 50 30.4793 47.7281 31.1394 44.9436L40.5201 5.06419C41.1763 2.26999 43.9889 0 46.8069 0Z" fill="#007B84"/>
</g>
<path d="M11.5134 18.0444C10.2162 18.0576 9.83311 18.0444 9.71074 18.0156C9.6637 18.2384 8.78837 22.2639 8.78591 22.2673C8.59743 23.0817 8.46031 23.6622 7.99451 24.0371C7.73009 24.255 7.4214 24.3602 7.06352 24.3602C6.48827 24.3602 6.15314 24.0754 6.09687 23.5353L6.08611 23.3499C6.08611 23.3499 6.26136 22.259 6.26136 22.2529C6.26136 22.2529 7.18005 18.5845 7.34454 18.0996C7.35315 18.072 7.35561 18.0576 7.35776 18.0444C5.56958 18.06 5.25259 18.0444 5.23076 18.0156C5.21877 18.0551 5.17449 18.2825 5.17449 18.2825L4.23644 22.4172L4.15588 22.7678L4 23.9148C4 24.255 4.06703 24.5328 4.20046 24.7675C4.62783 25.5121 5.84691 25.6236 6.53654 25.6236C7.42509 25.6236 8.25861 25.4354 8.82188 25.0918C9.7996 24.5159 10.0554 23.6157 10.2835 22.8156L10.3893 22.4052C10.3893 22.4052 11.3357 18.5952 11.4965 18.0996C11.5026 18.072 11.5051 18.0576 11.5134 18.0444ZM14.7333 21.118C14.5052 21.118 14.0883 21.1731 13.7138 21.3561C13.5779 21.4257 13.4494 21.506 13.3138 21.586L13.4361 21.1455L13.3691 21.0714C12.5749 21.2317 12.3972 21.2531 11.6636 21.3561L11.6021 21.3969C11.517 22.101 11.4413 22.6303 11.1256 24.0142C11.0054 24.5243 10.8805 25.0392 10.7554 25.5481L10.7892 25.6127C11.541 25.5732 11.7691 25.5732 12.4224 25.5839L12.4753 25.5266C12.5583 25.1027 12.5691 25.0034 12.753 24.1448C12.8394 23.7378 13.0195 22.8433 13.1084 22.5249C13.2716 22.4495 13.4328 22.3753 13.5865 22.3753C13.9527 22.3753 13.9081 22.6938 13.8939 22.8207C13.8783 23.0337 13.7448 23.7295 13.608 24.3269L13.5167 24.7125C13.453 24.9973 13.3832 25.274 13.3196 25.5563L13.3473 25.6127C14.0883 25.5732 14.3142 25.5732 14.947 25.5839L15.0214 25.5266C15.1358 24.8645 15.1693 24.6874 15.3722 23.7234L15.4743 23.2804C15.6726 22.4136 15.7722 21.9741 15.6222 21.6161C15.4635 21.2148 15.0829 21.118 14.7333 21.118ZM18.3303 22.0255C17.9365 22.1009 17.6853 22.1512 17.4356 22.1837C17.1881 22.2232 16.9468 22.2591 16.5661 22.3118L16.536 22.3391L16.5083 22.3609C16.4687 22.6435 16.441 22.8878 16.3884 23.175C16.3438 23.472 16.2753 23.8095 16.1637 24.2944C16.0773 24.6656 16.0327 24.7949 15.9835 24.9255C15.9355 25.0561 15.8826 25.183 15.7855 25.548L15.8082 25.5817L15.8273 25.6127C16.183 25.5958 16.4158 25.5839 16.655 25.5817C16.8939 25.5732 17.1414 25.5817 17.5245 25.5839L17.558 25.5566L17.594 25.5266C17.6493 25.1974 17.6576 25.1088 17.6914 24.9482C17.7249 24.7759 17.7827 24.5374 17.9245 23.9005C17.9915 23.6013 18.0662 23.3031 18.1357 22.9978C18.208 22.6937 18.2836 22.3943 18.3555 22.0951L18.3448 22.0589L18.3303 22.0255ZM18.3387 20.8018C17.9808 20.5913 17.3527 20.6581 16.9299 20.949C16.5084 21.234 16.4605 21.6386 16.8171 21.852C17.1688 22.0567 17.7994 21.9957 18.2185 21.7024C18.6391 21.4112 18.6917 21.0103 18.3387 20.8018ZM20.5031 25.6787C21.2271 25.6787 21.9693 25.4798 22.528 24.8894C22.9578 24.4106 23.1549 23.6983 23.2232 23.405C23.4455 22.4327 23.2724 21.9787 23.055 21.7022C22.7248 21.2808 22.1412 21.1456 21.5358 21.1456C21.1718 21.1456 20.3048 21.1815 19.6274 21.804C19.141 22.2531 18.9163 22.8624 18.7807 23.4466C18.6439 24.0419 18.4865 25.1135 19.4749 25.5123C19.7799 25.6428 20.2196 25.6787 20.5031 25.6787ZM20.4465 23.4911C20.6135 22.7548 20.8105 22.1369 21.3135 22.1369C21.7077 22.1369 21.7363 22.5967 21.561 23.3354C21.5297 23.4994 21.3858 24.109 21.1912 24.3686C21.0553 24.5602 20.8945 24.6764 20.7168 24.6764C20.6639 24.6764 20.3493 24.6764 20.3444 24.2108C20.342 23.9809 20.389 23.7461 20.4465 23.4911ZM25.0332 25.584L25.0898 25.5267C25.17 25.1028 25.1832 25.0032 25.3609 24.1449C25.4498 23.7379 25.6336 22.8434 25.72 22.525C25.8836 22.4493 26.042 22.3751 26.2006 22.3751C26.5643 22.3751 26.5201 22.6936 26.5056 22.8205C26.4924 23.0338 26.3589 23.7293 26.2197 24.3267L26.1333 24.7123C26.0672 24.9973 25.9952 25.2738 25.9316 25.5564L25.9592 25.6128C26.7027 25.5733 26.9201 25.5733 27.5565 25.584L27.6334 25.5267C27.745 24.8643 27.7751 24.6871 27.9842 23.7235L28.0838 23.2802C28.283 22.4134 28.3839 21.9742 28.2363 21.6161C28.073 21.2149 27.6899 21.1181 27.3453 21.1181C27.1168 21.1181 26.6978 21.1729 26.3254 21.3562C26.1923 21.4258 26.0589 21.5058 25.9279 21.5861L26.042 21.1456L25.9808 21.0712C25.1869 21.2318 25.0055 21.2532 24.2728 21.3562L24.2166 21.397C24.1277 22.1011 24.0555 22.6301 23.7397 24.0143C23.6195 24.5244 23.4947 25.0393 23.3698 25.5482L23.4033 25.6128C24.1563 25.5733 24.3811 25.5733 25.0332 25.584ZM30.4953 25.6127C30.5421 25.3852 30.8197 24.0372 30.8222 24.0372C30.8222 24.0372 31.0586 23.048 31.0731 23.0122C31.0731 23.0122 31.1475 22.9092 31.2219 22.8684H31.3313C32.3641 22.8684 33.5303 22.8684 34.4443 22.1981C35.0663 21.7383 35.4916 21.0594 35.6813 20.2342C35.7304 20.0319 35.7667 19.7913 35.7667 19.5507C35.7667 19.2347 35.7031 18.922 35.5192 18.6777C35.0531 18.0276 34.1249 18.0156 33.0534 18.0107C33.05 18.0107 32.5252 18.0156 32.5252 18.0156C31.1536 18.0325 30.6036 18.0276 30.3776 18C30.3585 18.0996 30.3225 18.2768 30.3225 18.2768C30.3225 18.2768 29.8312 20.5469 29.8312 20.5505C29.8312 20.5505 28.6555 25.377 28.6002 25.6044C29.7977 25.59 30.2887 25.59 30.4953 25.6127ZM31.4057 21.5801C31.4057 21.5801 31.9281 19.3147 31.9256 19.3232L31.9426 19.2071L31.9499 19.1185L32.1587 19.1399C32.1587 19.1399 33.236 19.2322 33.2612 19.2347C33.6865 19.3986 33.8617 19.8213 33.7393 20.3731C33.6277 20.8773 33.2997 21.3012 32.8781 21.506C32.531 21.6794 32.1058 21.6938 31.6677 21.6938H31.3842L31.4057 21.5801ZM34.6582 23.533C34.5201 24.1197 34.3615 25.1913 35.345 25.5732C35.6586 25.7063 35.9396 25.7458 36.2253 25.7314C36.5269 25.7151 36.8064 25.5643 37.0653 25.3473C37.0419 25.4365 37.0185 25.5257 36.9951 25.6152L37.0397 25.6725C37.7472 25.6428 37.9667 25.6428 38.7332 25.6486L38.8027 25.5959C38.9146 24.94 39.0201 24.303 39.3109 23.0481C39.4527 22.4471 39.5941 21.8518 39.7395 21.2532L39.7168 21.1873C38.9254 21.3335 38.7138 21.3647 37.9526 21.4723L37.8948 21.5192C37.8871 21.5802 37.8791 21.6388 37.8717 21.6973C37.7533 21.5067 37.5818 21.3439 37.3171 21.2424C36.9785 21.1097 36.1835 21.2808 35.5 21.9011C35.0197 22.3441 34.7891 22.951 34.6582 23.533ZM36.3203 23.5689C36.4897 22.8458 36.6843 22.234 37.1885 22.234C37.5074 22.234 37.6752 22.5274 37.6411 23.0276C37.6141 23.1524 37.5849 23.2838 37.5501 23.4325C37.4997 23.6474 37.445 23.8604 37.3918 24.0737C37.3377 24.2196 37.2746 24.3573 37.2055 24.4489C37.0757 24.6322 36.767 24.7459 36.5893 24.7459C36.5389 24.7459 36.2277 24.7459 36.217 24.2886C36.2145 24.0609 36.2616 23.8264 36.3203 23.5689ZM45 21.1814L44.9388 21.1118C44.1557 21.27 44.014 21.2951 43.2945 21.392L43.2416 21.4447C43.2392 21.4533 43.237 21.4665 43.2333 21.4784L43.2309 21.4665C42.6953 22.6984 42.711 22.4326 42.275 23.4024C42.2725 23.3583 42.2725 23.3307 42.2701 23.2838L42.1609 21.1814L42.0924 21.1118C41.2721 21.27 41.2527 21.2951 40.4951 21.392L40.4361 21.4447C40.4278 21.4698 40.4278 21.4974 40.4229 21.5275L40.4278 21.5382C40.5225 22.0207 40.4997 21.9131 40.5947 22.6745C40.639 23.0481 40.698 23.4239 40.7423 23.7929C40.817 24.4106 40.8588 24.7146 40.9501 25.6572C40.4385 26.4989 40.3174 26.8174 39.8248 27.5561L39.8282 27.5634L39.4814 28.1102C39.4418 28.1679 39.4058 28.2074 39.3554 28.2243C39.3 28.2515 39.2281 28.2565 39.1281 28.2565H38.936L38.6504 29.2036L39.6302 29.2205C40.2055 29.218 40.5671 28.9498 40.7617 28.5893L41.3778 27.5368H41.368L41.4329 27.4626C41.8473 26.5731 45 21.1814 45 21.1814ZM34.6581 33.6207H34.2424L35.781 28.5475H36.2913L36.4534 28.0249L36.4691 28.606C36.45 28.9653 36.7335 29.2837 37.4781 29.231H38.3393L38.6357 28.2542H38.3117C38.1253 28.2542 38.0389 28.2073 38.0497 28.1067L38.034 27.5154H36.4392V27.5185C35.9236 27.5292 34.3839 27.5679 34.0721 27.6506C33.6949 27.7475 33.2973 28.0325 33.2973 28.0325L33.4535 27.5093H31.9617L31.6509 28.5475L30.0917 33.6982H29.7892L29.4925 34.668H32.4638L32.3642 34.9914H33.8283L33.9254 34.668H34.3362L34.6581 33.6207ZM33.439 29.5783C33.2002 29.6442 32.7556 29.8441 32.7556 29.8441L33.151 28.5475H34.3362L34.0503 29.4922C34.0503 29.4922 33.6841 29.5136 33.439 29.5783ZM33.4618 31.4306C33.4618 31.4306 33.0895 31.4772 32.8444 31.5324C32.6031 31.6053 32.1505 31.8352 32.1505 31.8352L32.5588 30.4859H33.7502L33.4618 31.4306ZM32.7977 33.6326H31.6087L31.9534 32.4939H33.1387L32.7977 33.6326ZM35.6609 30.4859H37.3747L37.1284 31.281H35.3919L35.1312 32.1503H36.6506L35.5001 33.7653C35.4196 33.884 35.3473 33.926 35.2671 33.9594C35.1865 34.0001 35.0808 34.048 34.9584 34.048H34.5369L34.2472 35H35.3498C35.9229 35 36.2614 34.7401 36.5114 34.3989L37.3003 33.3224L37.4697 34.4155C37.5057 34.6202 37.6533 34.7401 37.7532 34.7867C37.8636 34.8418 37.9776 34.9366 38.1387 34.9506C38.3115 34.958 38.4364 34.9638 38.5194 34.9638H39.0611L39.3864 33.8984H39.1727C39.05 33.8984 38.8388 33.8778 38.8029 33.8395C38.7669 33.7929 38.7669 33.7212 38.7475 33.6121L38.5756 32.5166H37.8719L38.1806 32.1503H39.9137L40.1803 31.281H38.5756L38.8256 30.4859H40.4253L40.722 29.5054H35.9527L35.6609 30.4859ZM21.1863 33.854L21.5863 32.5274H23.2303L23.5307 31.5407H21.8852L22.1364 30.7242H23.7444L24.0423 29.7688H20.0189L19.7271 30.7242H20.6412L20.3974 31.5407H19.4808L19.1771 32.5443H20.0908L19.5577 34.2994C19.4858 34.5317 19.5915 34.6203 19.6585 34.7282C19.7271 34.8333 19.7966 34.9029 19.9528 34.9425C20.1139 34.9783 20.2243 34.9998 20.3743 34.9998H22.2277L22.5579 33.9067L21.7364 34.0192C21.5777 34.0192 21.1383 34.0002 21.1863 33.854ZM21.3749 27.5033L20.9583 28.254C20.8691 28.418 20.7889 28.5198 20.7166 28.5667C20.653 28.6062 20.5269 28.6227 20.3443 28.6227H20.1269L19.8364 29.5831H20.5583C20.9054 29.5831 21.172 29.4562 21.2992 29.3927C21.4361 29.3198 21.472 29.3615 21.5778 29.2597L21.8216 29.0491H24.0759L24.3751 28.0492H22.7249L23.013 27.5033H21.3749ZM24.7029 33.8733C24.6645 33.8181 24.6922 33.721 24.7509 33.5187L25.367 31.4855H27.5589C27.8784 31.4809 28.109 31.4773 28.259 31.4665C28.4201 31.4497 28.5954 31.3923 28.7863 31.2894C28.9834 31.1815 29.0842 31.0677 29.1694 30.9372C29.2644 30.8069 29.4169 30.5218 29.5479 30.0823L30.3224 27.5094L28.0478 27.5226C28.0478 27.5226 27.3474 27.6255 27.039 27.7393C26.7279 27.8662 26.2833 28.2205 26.2833 28.2205L26.4887 27.5152H25.0836L23.1164 34.0192C23.0467 34.2718 22.9999 34.4551 22.9892 34.5651C22.9855 34.6837 23.1392 34.8011 23.2388 34.8897C23.3566 34.9783 23.5306 34.9639 23.6975 34.9783C23.8731 34.9915 24.1228 34.9998 24.4674 34.9998H25.5472L25.8787 33.884L24.912 33.9751C24.8087 33.9751 24.734 33.9199 24.7029 33.8733ZM25.7646 30.1123H28.0668L27.9205 30.5697C27.8999 30.5804 27.8507 30.547 27.6164 30.5746H25.6229L25.7646 30.1123ZM26.2258 28.5785H28.5474L28.3805 29.1293C28.3805 29.1293 27.2862 29.1186 27.111 29.1508C26.3398 29.2838 25.8894 29.6945 25.8894 29.6945L26.2258 28.5785ZM27.972 32.1011C27.953 32.1695 27.9228 32.2111 27.8807 32.2424C27.834 32.2725 27.7583 32.2832 27.6455 32.2832H27.3174L27.3368 31.7262H25.9723L25.917 34.449C25.9148 34.6455 25.9339 34.7592 26.0781 34.8503C26.2223 34.964 26.6666 34.9784 27.2646 34.9784H28.1196L28.4283 33.9592L27.6839 34L27.4364 34.0144C27.4026 34 27.3703 33.9868 27.3344 33.9509C27.303 33.92 27.2501 33.939 27.2587 33.7425L27.2646 33.0446L28.0452 33.0124C28.4667 33.0124 28.6469 32.8757 28.8006 32.7454C28.9473 32.6207 28.9953 32.4772 29.0506 32.2832L29.1816 31.6652H28.1088L27.972 32.1011Z" fill="#FEFEFE"/>
</svg>
