<svg width="50" height="50" viewBox="0 0 50 50" fill="none" xmlns="http://www.w3.org/2000/svg">
<path d="M49.9998 24.9085C49.9998 38.6637 38.8051 49.8139 24.999 49.8139C11.1944 49.8139 -0.000244141 38.6637 -0.000244141 24.9085C-0.000244141 11.1564 11.1944 -0.000167847 24.999 -0.000167847C38.8051 -0.000167847 49.9998 11.1564 49.9998 24.9085Z" fill="#E83E44"/>
<path d="M4.16429 22.1302L4.20519 22.685C4.20373 22.7438 4.21927 22.8019 4.24994 22.8521C4.28062 22.9024 4.32515 22.9429 4.37824 22.9687C4.43092 22.9902 4.48885 22.9956 4.54461 22.9841C4.60037 22.9727 4.65145 22.9449 4.6913 22.9044C5.62419 22.127 7.04004 21.4295 8.17587 21.8214C9.05842 22.127 9.66723 23.0392 9.98029 24.5408C10.6284 27.6802 8.46219 29.1927 7.11713 29.815L7.06836 29.8353L5.34102 30.6833C5.34102 30.6833 5.24663 30.7209 5.14123 30.6676C5.0374 30.6159 4.9965 30.5454 4.932 30.362C3.75369 26.036 3.35568 21.5001 3.79617 17.2697C3.83865 16.9437 3.98023 16.5613 4.23823 16.2463L5.67611 14.7071L5.84129 14.5316C6.63574 13.7635 7.36412 13.3874 7.76527 13.5519C8.10822 13.693 8.19003 14.2196 8.19632 14.6397C8.25767 16.8889 6.99757 19.1882 4.34049 21.6678C4.34049 21.6678 4.14227 21.8339 4.16429 22.1302ZM12.1261 19.0111C11.3395 18.5424 10.4412 18.4077 9.54453 18.5362C11.1869 16.7995 12.0789 14.9077 12.0789 12.9987C12.0789 12.8263 12.0695 12.6491 12.0553 12.4752C11.9656 11.2871 11.4087 10.3968 10.5702 10.0928C9.70814 9.78086 8.15542 9.9376 5.66352 12.4658L4.17688 14.1287C3.771 14.6303 2.20412 16.9908 1.90837 19.4468C1.42698 23.6301 1.73689 27.7993 2.8035 31.503C2.92935 31.9325 3.32579 32.9795 4.29014 33.3698C5.31585 33.7788 6.28807 33.2851 7.1423 32.8416L7.37198 32.7287L8.25453 32.3337L9.11505 31.9544L10.1675 31.4983C10.9179 31.1927 11.6274 30.9043 12.3102 30.3306C13.2292 29.5543 13.9015 28.5283 14.2452 27.3777C14.4229 26.779 14.5456 26.1254 14.6133 25.3809C14.6652 24.8041 14.7187 23.6881 14.5063 22.7022C14.0359 20.5377 12.9504 19.4985 12.1261 19.0111Z" fill="white"/>
<path d="M31.7468 5.8841C31.2607 4.22739 30.4616 3.8763 30.235 3.7995C28.1928 3.14658 26.0216 2.99918 23.9093 3.37004C20.7614 3.94683 18.0351 5.58787 16.237 8.00161C14.346 10.5376 13.6161 13.6943 14.1761 16.8917C14.7425 20.1033 16.3754 22.7004 18.9004 24.4041C21.8579 26.3947 25.805 27.0013 30.0132 26.1126C32.4972 25.5797 34.5628 24.6126 36.1549 23.2443C36.8659 22.6299 37.0075 21.8493 37.0075 21.296C37.0075 21.296 37.039 20.854 36.696 19.4606C36.6016 19.1174 36.4522 19.0202 36.2131 19.0202C36.04 19.0202 35.8544 19.2161 35.8182 19.2585C34.6352 20.6268 32.8229 21.5797 30.5591 22.0264C24.7636 23.1361 20.302 20.4371 19.1977 15.1457C18.7226 12.8558 19.119 10.6567 20.3099 8.95144C21.5197 7.22733 23.494 6.08002 25.8742 5.72423C27.6746 5.45769 29.5139 5.68249 31.1962 6.37469C31.1962 6.37469 31.901 6.57531 31.7468 5.8841Z" fill="white"/>
</svg>
