<svg width="50" height="50" viewBox="0 0 50 50" fill="none" xmlns="http://www.w3.org/2000/svg">
<circle cx="25" cy="25" r="25" fill="#FFDC00"/>
<path fill-rule="evenodd" clip-rule="evenodd" d="M24.6032 15.7388L19.4745 13L24.5339 22.691L29.5933 13.0702L24.6032 15.7388ZM28.4851 16.5112L35 13.8426V18.6881L31.2574 20.3735C33.4752 22.1994 34.9307 24.9381 34.9307 27.9578C34.9307 33.4353 30.2178 37.9297 24.4653 37.9297C18.6436 37.9297 14 33.5055 14 27.9578C14 24.8679 15.4554 22.1291 17.8119 20.2331L14.0693 18.5477V13.7022L20.5149 16.4409L21.5545 18.337L23.9109 22.8314C21.2772 23.1825 19.2673 25.3595 19.2673 27.9578C19.2673 30.7668 21.6931 33.0842 24.6733 33.0842C27.6535 33.0842 30.0792 30.837 30.0792 27.9578C30.0792 25.2893 27.9307 23.0421 25.1584 22.8314L27.3762 18.4775H27.4455L28.4851 16.5112Z" fill="white"/>
</svg>
