<svg width="50" height="50" viewBox="0 0 50 50" fill="none" xmlns="http://www.w3.org/2000/svg">
<circle cx="25" cy="25" r="25" fill="#FFEB00"/>
<path fill-rule="evenodd" clip-rule="evenodd" d="M11.0315 20.8802C7.65417 20.8802 4.91882 23.0982 4.91882 25.8636C4.91882 27.6207 6.0632 29.1763 7.76581 30.0692L7.17967 32.3161C7.15176 32.3737 7.17967 32.4601 7.23549 32.5177C7.2634 32.5465 7.31923 32.5753 7.34714 32.5753C7.37505 32.5753 7.43087 32.5465 7.45878 32.5465L9.94292 30.8182C10.3058 30.8758 10.6686 30.9046 11.0594 30.9046C14.4367 30.9046 17.172 28.6578 17.172 25.9212C17.172 23.0982 14.4367 20.8802 11.0315 20.8802Z" fill="black"/>
<path d="M22.3357 30.0116V33.2379H20.1028V21.3411H21.6658L21.945 22.09C22.4195 21.6003 23.1452 21.0818 24.2895 21.0818C26.4666 21.0818 27.4994 22.7526 27.4994 25.4891C27.4994 28.3409 25.9084 30.1557 23.6197 30.1557C23.1731 30.1845 22.8381 30.1557 22.3357 30.0116ZM22.3357 23.2711V28.3985C22.4474 28.4273 22.7544 28.4561 23.0614 28.4561C24.6524 28.4561 25.2664 27.3039 25.2664 25.4891C25.2664 23.9048 24.8478 22.9542 23.5917 22.9542C23.1452 22.9542 22.6986 23.0694 22.3357 23.2711Z" fill="black"/>
<path d="M32.3281 24.7114H33.5841V24.4233C33.5841 23.4727 33.0538 23.0406 32.1606 23.0406C31.4629 23.0406 30.5976 23.2423 29.8719 23.6167L29.2578 22.09C30.0394 21.5139 31.2675 21.1394 32.356 21.1394C34.4773 21.1394 35.6496 22.2917 35.6496 24.5097V29.954H34.0865L33.8633 29.2339C32.9701 29.8964 32.1327 30.1845 31.407 30.1845C29.7881 30.1845 28.8671 29.1763 28.8671 27.4767C28.8671 25.6619 30.0673 24.7114 32.3281 24.7114ZM33.612 27.736V26.1516H32.5793C31.4349 26.1516 30.8488 26.5837 30.8488 27.4191C30.8488 28.0528 31.1558 28.3697 31.8257 28.3697C32.4398 28.3985 33.2213 28.0816 33.612 27.736Z" fill="black"/>
<path d="M42.4043 29.061C41.6227 31.1927 40.7017 32.7482 39.334 33.6123L37.9663 32.3161C38.7478 31.5959 39.334 30.9046 39.8085 29.9828L36.8499 21.6579L39.0549 21.053L40.9529 27.7936L42.8229 21.0242L45.0001 21.6579L42.4043 29.061Z" fill="black"/>
</svg>
