<svg width="50" height="50" viewBox="0 0 50 50" fill="none" xmlns="http://www.w3.org/2000/svg">
<path fill-rule="evenodd" clip-rule="evenodd" d="M23.8874 0.372534C10.276 0.989024 -0.257529 12.5196 0.359524 26.1318C0.973129 39.7394 12.5064 50.2732 26.1166 49.6561C39.7227 49.0396 50.2569 37.5079 49.6392 23.9003C49.0435 10.6702 38.1313 0.347254 25.0232 0.34668C24.6463 0.34668 24.2677 0.355298 23.8874 0.372534Z" fill="url(#paint0_radial_16_1244)"/>
<path fill-rule="evenodd" clip-rule="evenodd" d="M23.8714 0.0258547C10.483 0.62913 0.0333231 11.657 0 24.9181V25.0399C0.000574537 25.4025 0.00919258 25.7656 0.0258541 26.131C0.650375 39.9225 12.3364 50.5958 26.1311 49.9742C39.9222 49.3519 50.6006 37.6633 49.9738 23.869C49.3682 10.4637 38.3072 0 25.0228 0C24.6407 0 24.2569 0.00861822 23.8714 0.0258547ZM26.8468 46.9899C26.8226 46.4257 27.6506 46.2827 27.6506 46.2827C35.0448 44.8279 32.8834 39.9764 30.2647 37.503C29.165 36.4602 18.8745 27.5823 18.8745 27.5823C9.05855 19.1301 9.84624 12.5343 9.84624 12.5343C10.3174 4.4125 17.4272 2.39871 22.8061 2.86524C23.4329 2.9204 23.7816 3.30362 23.6713 3.82589C23.5524 4.39986 22.7193 4.44295 22.7193 4.44295C21.0095 4.54177 19.4783 4.71873 18.3155 5.50069C13.9789 8.41537 15.2618 13.376 21.0376 18.8963C21.7621 19.5898 22.5366 20.3206 23.3283 21.0612C23.3283 21.0612 24.4918 22.0873 26.7979 24.2827C31.2449 28.3798 33.6797 30.5889 33.6797 30.5889C41.5107 37.1117 38.8396 43.0738 35.8406 45.1468C33.5602 46.7274 31.0311 47.4714 27.7138 47.6472C27.6856 47.6512 27.6546 47.6535 27.6224 47.6535C27.3179 47.6535 26.8703 47.4674 26.8468 46.9899ZM28.6779 22.9101C26.1396 22.3769 25.6225 20.0701 25.6225 20.0701C25.4162 19.2623 25.3651 18.2407 25.5352 16.9377C25.8828 14.2086 26.6159 12.9245 27.4535 10.8101C28.5837 7.96898 25.8368 6.30682 26.2936 5.26229C26.9089 3.84718 28.8681 5.64551 31.0559 5.77536C32.9421 5.8805 34.0711 5.78513 35.5344 5.98277C37.4849 6.24132 39.8107 6.89918 40.8466 8.11779C41.7974 9.22609 40.3456 10.5895 38.5961 9.73687C37.3235 9.11578 35.7171 9.49556 36.6605 10.8256C37.7912 12.0914 38.3393 12.1293 39.4935 12.4303C42.6759 13.2698 42.7443 16.3189 40.5869 17.8966C38.1359 19.6921 35.6528 18.9497 34.6554 15.4266C34.1607 13.6719 32.9168 12.7762 31.6477 13.2801C30.3831 13.7748 31.13 16.0873 32.0912 18.2287C33.7608 22.4907 30.3791 22.9285 29.0927 22.9285C28.8979 22.9285 28.7514 22.9181 28.6779 22.9101ZM19.3619 46.1942C16.603 45.9231 13.3023 45.0532 10.4319 42.566C7.79016 40.2798 6.15158 37.1405 5.35987 34.3861C4.54403 31.5617 4.20562 28.2569 5.54659 28.5194C5.96026 28.601 6.67326 30.4137 7.45118 31.7386C8.25266 33.1014 8.90246 33.8541 9.51951 34.3143C9.79644 34.5257 10.7393 32.4269 12.1078 31.2347C12.9041 30.5792 13.7763 30.3522 13.9159 32.3143C14.0905 34.7228 13.655 37.5904 14.3577 37.5904C15.0167 37.5904 16.4938 37.0911 19.752 36.817C20.9781 36.7113 21.6733 36.9429 20.5047 38.5901C19.9226 39.4094 19.1436 40.5694 17.2993 41.8914C20.064 44.4804 23.3842 44.1741 23.4434 45.2727C23.4802 45.907 22.2392 46.2569 20.6075 46.2569C20.2111 46.2569 19.7917 46.2368 19.3619 46.1942Z" fill="url(#paint1_radial_16_1244)"/>
<defs>
<radialGradient id="paint0_radial_16_1244" cx="0" cy="0" r="1" gradientUnits="userSpaceOnUse" gradientTransform="translate(30.0565 19.0437) rotate(87.3495) scale(23.064 23.0622)">
<stop offset="0.000554265" stop-color="#FEFDFC"/>
<stop offset="1" stop-color="#D3A243"/>
</radialGradient>
<radialGradient id="paint1_radial_16_1244" cx="0" cy="0" r="1" gradientUnits="userSpaceOnUse" gradientTransform="translate(31.1244 23.9678) rotate(65.7564) scale(20.7554 19.4344)">
<stop stop-color="#00A8E2"/>
<stop offset="0.183963" stop-color="#00AFE7"/>
<stop offset="1" stop-color="#005BAC"/>
</radialGradient>
</defs>
</svg>
