<?xml version="1.0" encoding="utf-8"?>
<!-- Generator: Adobe Illustrator 28.3.0, SVG Export Plug-In . SVG Version: 6.00 Build 0)  -->
<svg version="1.1" id="Layer_2_00000074443786528565000150000006272861761269719219_"
	 xmlns="http://www.w3.org/2000/svg" xmlns:xlink="http://www.w3.org/1999/xlink" x="0px" y="0px" viewBox="0 0 95 16.4"
	 style="enable-background:new 0 0 95 16.4;" xml:space="preserve">
<style type="text/css">
	.st0{fill:#D9D9D9;}
</style>
<g id="_레이어_1">
	<g>
		<path class="st0" d="M11.3,0.2c0.7,0,1,0.6,1,1.2s-0.3,1.2-1,1.2H7.6V15c0,0.8-0.7,1.2-1.4,1.2S4.8,15.8,4.8,15V2.7H1
			c-0.7,0-1-0.5-1-1.2s0.3-1.2,1-1.2h10.3C11.3,0.3,11.3,0.2,11.3,0.2z"/>
		<path class="st0" d="M19.9,7c0.6,0,0.9,0.5,0.9,1.2c0,0.6-0.3,1.2-0.9,1.2h-5.8c-0.6,0-0.9-0.5-0.9-1.2S13.5,7,14.1,7H19.9z"/>
		<path class="st0" d="M36.2,7.7v1c0,5.4-2.4,7.7-6.7,7.7s-6.7-2.3-6.7-7.7v-1c0-5.4,2.4-7.7,6.7-7.7S36.2,2.3,36.2,7.7z M25.6,7.9
			v0.5c0,4,1.3,5.3,3.9,5.3s3.9-1.2,3.9-5.3V7.9c0-4-1.3-5.3-3.9-5.3S25.6,3.9,25.6,7.9z"/>
		<path class="st0" d="M51.3,1.2v13c0,1.4-0.5,1.9-1.9,1.9c-1.1,0-1.5-0.2-2.6-2.2l-4.1-7.5c-0.5-0.8-0.8-1.7-1.1-2.6v11.3
			c-0.1,0.7-0.7,1.2-1.5,1.1c-0.6-0.1-1-0.5-1.1-1.1v-13c0-1.4,0.5-1.9,1.9-1.9c1.1,0,1.5,0.2,2.6,2.3l4.1,7.5
			c0.5,0.8,0.8,1.7,1.1,2.6V1.2c0.1-0.7,0.7-1.2,1.5-1.1C50.7,0.2,51.2,0.6,51.3,1.2z"/>
		<path class="st0" d="M60.7,0.2c3.8,0,5.4,2,5.4,4.6v0.3c0,2.6-1.7,4.8-5.4,4.8h-3.1v4.9c0,0.8-0.7,1.2-1.4,1.2s-1.4-0.4-1.4-1.2
			V2.1c0-1.4,0.4-1.8,1.9-1.8L60.7,0.2C60.7,0.3,60.7,0.2,60.7,0.2z M57.6,7.5h2.8c1.8,0,2.9-0.6,2.9-2.5V4.8c0-1.8-1.1-2.2-2.7-2.2
			h-3V7.5z"/>
		<path class="st0" d="M76,1.4l4.8,12.9c0.3,0.6,0.1,1.3-0.5,1.7c-0.1,0-0.1,0-0.2,0.1c-0.7,0.3-1.5,0-1.8-0.6c0,0,0-0.1-0.1-0.2
			L77,11.7h-5.6l-1.3,3.6c-0.2,0.7-0.9,1-1.5,0.8c-0.1,0-0.2-0.1-0.2-0.1c-0.6-0.1-1-0.8-0.8-1.4c0-0.1,0-0.2,0.1-0.2l4.9-13
			c0.3-1,1.2-1.5,2.2-1.2C75.4,0.3,75.9,0.8,76,1.4z M73.5,6.2l-1.2,3.2h3.8L75,6.2c-0.4-1.1-0.6-1.7-0.8-2.5
			C74.1,4.5,73.9,5.1,73.5,6.2z"/>
		<path class="st0" d="M94.8,2l-4.4,7.8v5.1c0,0.8-0.7,1.2-1.4,1.2s-1.4-0.4-1.4-1.2V9.8L83.2,2c-0.4-0.5-0.2-1.3,0.3-1.6
			c0,0,0.1-0.1,0.2-0.1c0.6-0.4,1.4-0.2,1.8,0.5v0.1L89,7.2l3.4-6.3c0.3-0.7,1.1-1,1.7-0.6h0.1c0.6,0.2,0.9,0.8,0.7,1.4
			C94.9,1.8,94.9,1.9,94.8,2z"/>
	</g>
</g>
</svg>
