<?xml version="1.0" encoding="UTF-8"?>
<svg id="Layer_2" data-name="Layer 2" xmlns="http://www.w3.org/2000/svg" viewBox="0 0 94.96 16.4">
  <defs>
    <style>
      .cls-1 {
        fill: #5b3d94;
        stroke-width: 0px;
      }
    </style>
  </defs>
  <g id="_레이어_1" data-name="레이어 1">
    <g>
      <path class="cls-1" d="M11.3.2c.7,0,1,.6,1,1.2s-.3,1.2-1,1.2h-3.7v12.4c0,.8-.7,1.2-1.4,1.2s-1.4-.4-1.4-1.2V2.7H1c-.7,0-1-.5-1-1.2S.3.3,1,.3h10.3v-.1Z"/>
      <path class="cls-1" d="M19.9,7c.6,0,.9.5.9,1.2,0,.6-.3,1.2-.9,1.2h-5.8c-.6,0-.9-.5-.9-1.2s.3-1.2.9-1.2h5.8Z"/>
      <path class="cls-1" d="M36.2,7.7v1c0,5.4-2.4,7.7-6.7,7.7s-6.7-2.3-6.7-7.7v-1c0-5.4,2.4-7.7,6.7-7.7s6.7,2.3,6.7,7.7ZM25.6,7.9v.5c0,4,1.3,5.3,3.9,5.3s3.9-1.2,3.9-5.3v-.5c0-4-1.3-5.3-3.9-5.3-2.6,0-3.9,1.3-3.9,5.3Z"/>
      <path class="cls-1" d="M51.3,1.2v13c0,1.4-.5,1.9-1.9,1.9-1.1,0-1.5-.2-2.6-2.2l-4.1-7.5c-.5-.8-.8-1.7-1.1-2.6v11.3c-.1.7-.7,1.2-1.5,1.1-.6-.1-1-.5-1.1-1.1V2.1c0-1.4.5-1.9,1.9-1.9,1.1,0,1.5.2,2.6,2.3l4.1,7.5c.5.8.8,1.7,1.1,2.6V1.2c.1-.7.7-1.2,1.5-1.1.5.1,1,.5,1.1,1.1Z"/>
      <path class="cls-1" d="M60.7.2c3.8,0,5.4,2,5.4,4.6v.3c0,2.6-1.7,4.8-5.4,4.8h-3.1v4.9c0,.8-.7,1.2-1.4,1.2s-1.4-.4-1.4-1.2V2.1c0-1.4.4-1.8,1.9-1.8h4v-.1ZM57.6,7.5h2.8c1.8,0,2.9-.6,2.9-2.5v-.2c0-1.8-1.1-2.2-2.7-2.2h-3s0,4.9,0,4.9Z"/>
      <path class="cls-1" d="M76,1.4l4.8,12.9c.3.6.1,1.3-.5,1.7q-.1,0-.2.1c-.7.3-1.5,0-1.8-.6,0,0,0-.1-.1-.2l-1.2-3.6h-5.6l-1.3,3.6c-.2.7-.9,1-1.5.8-.1,0-.2-.1-.2-.1-.6-.1-1-.8-.8-1.4,0-.1,0-.2.1-.2l4.9-13c.3-1,1.2-1.5,2.2-1.2.6.1,1.1.6,1.2,1.2ZM73.5,6.2l-1.2,3.2h3.8l-1.1-3.2c-.4-1.1-.6-1.7-.8-2.5-.1.8-.3,1.4-.7,2.5Z"/>
      <path class="cls-1" d="M94.8,2l-4.4,7.8v5.1c0,.8-.7,1.2-1.4,1.2s-1.4-.4-1.4-1.2v-5.1l-4.4-7.8c-.4-.5-.2-1.3.3-1.6,0,0,.1-.1.2-.1.6-.4,1.4-.2,1.8.5v.1l3.5,6.3,3.4-6.3c.3-.7,1.1-1,1.7-.6h.1c.6.2.9.8.7,1.4,0,.1,0,.2-.1.3Z"/>
    </g>
  </g>
</svg>