<svg width="50" height="50" viewBox="0 0 50 50" fill="none" xmlns="http://www.w3.org/2000/svg">
<circle cx="25" cy="25" r="25" fill="#009BFA"/>
<path d="M7.44432 20.0001C7.32653 20.0003 7.21361 20.0492 7.13032 20.1362C7.04703 20.2232 7.00016 20.3412 7 20.4642V27.8961C7 28.1515 7.14087 28.508 7.31429 28.6883L8.0014 29.4065C8.17482 29.5867 8.51609 29.7349 8.76062 29.7349H13.5083C13.6261 29.7345 13.7389 29.6855 13.8221 29.5986C13.9054 29.5116 13.9524 29.3938 13.9528 29.2709V28.2421C13.9524 28.1191 13.9055 28.0013 13.8222 27.9144C13.7389 27.8274 13.6261 27.7785 13.5083 27.7782H9.70779C9.58996 27.7779 9.47703 27.7289 9.39368 27.6419C9.31033 27.5549 9.26335 27.4369 9.26299 27.3139V20.4642C9.26269 20.3412 9.21579 20.2233 9.13253 20.1363C9.04928 20.0494 8.93643 20.0003 8.81867 20L7.44432 20.0001ZM32.5625 22.0519C32.3622 22.0519 32.1925 22.2241 32.1373 22.4151C31.6198 22.1771 31.0604 22.0547 30.495 22.0556C28.3484 22.0556 26.6082 23.7733 26.6082 25.8925C26.6082 28.0112 28.3484 29.7292 30.495 29.7292C31.0578 29.7302 31.6148 29.609 32.1305 29.3733C32.1531 29.4754 32.2081 29.5665 32.2865 29.6319C32.3649 29.6972 32.4621 29.733 32.5625 29.7334H33.9377C34.0554 29.733 34.1682 29.6839 34.2513 29.5969C34.3345 29.5099 34.3814 29.3921 34.3816 29.2692V22.5159C34.3813 22.393 34.3345 22.2752 34.2513 22.1883C34.1681 22.1013 34.0554 22.0523 33.9377 22.0519H32.5625ZM18.3731 22.0521C18.2554 22.0525 18.1427 22.1016 18.0595 22.1885C17.9763 22.2755 17.9295 22.3933 17.9292 22.5162V25.8675C17.9292 25.8758 17.9283 25.8842 17.9283 25.8925C17.9283 25.9011 17.9292 25.909 17.9292 25.9176V31.1695C17.9292 31.4245 18.0699 31.7814 18.2434 31.9616L18.9207 32.6685C19.0933 32.8493 19.4344 32.9964 19.6781 32.9964H19.7483C19.866 32.9962 19.9788 32.9473 20.062 32.8604C20.1452 32.7735 20.192 32.6557 20.1923 32.5329V29.3786C20.7045 29.6108 21.2571 29.7302 21.8155 29.7292C23.9619 29.7292 25.7021 28.0115 25.7021 25.8925C25.7021 23.7733 23.9619 22.0559 21.8155 22.0559C21.2503 22.0548 20.6911 22.1771 20.1738 22.415C20.1187 22.2238 19.9486 22.052 19.7483 22.052L18.3731 22.0521ZM35.65 22.0559C35.4055 22.0559 35.2828 22.265 35.3765 22.5199L38.0357 29.7556C38.0474 29.7919 38.0382 29.8403 38.0246 29.8756L37.9067 30.1961C37.7078 30.6947 37.3973 30.9399 36.9151 30.9399C36.5983 30.9399 36.3349 30.8779 36.1116 30.7646C36.0019 30.7099 35.8681 30.7848 35.8139 30.931L35.3187 32.2797C35.2658 32.4232 35.3067 32.5865 35.4078 32.65C35.41 32.6513 35.4111 32.6541 35.4134 32.6555L35.4138 32.6535C35.7533 32.8686 36.1893 33 36.8201 33C38.1897 33 39.3259 32.4308 40.0271 30.5246L41.3763 26.8524L42.9684 22.5199C43.0625 22.265 42.9392 22.0559 42.6947 22.0559H41.32C41.0749 22.0559 40.7987 22.265 40.7051 22.5199L39.2411 26.5037H39.2406C39.2033 26.6078 39.1419 26.6078 39.1045 26.5037H39.1041L37.6395 22.5199C37.5458 22.265 37.2697 22.0559 37.0247 22.0559H35.65ZM21.8155 23.9493C22.8412 23.9493 23.6757 24.8211 23.6757 25.8925C23.6757 26.9637 22.8413 27.8353 21.8155 27.8353C20.7897 27.8353 19.9551 26.9639 19.9551 25.8925C19.9551 24.8211 20.7897 23.9493 21.8155 23.9493ZM30.495 23.9495C31.5206 23.9495 32.3554 24.8211 32.3554 25.8925C32.3554 26.9637 31.5206 27.8356 30.495 27.8356C29.4691 27.8356 28.6346 26.9637 28.6346 25.8925C28.6346 24.8211 29.469 23.9495 30.495 23.9495ZM15.8234 27.7786C15.7561 27.7786 15.6898 27.7935 15.6318 27.8234C15.5962 27.8427 15.1006 28.0911 15.0971 28.0928C15.033 28.125 14.9979 28.1833 14.9979 28.2581V29.2718C14.9979 29.3572 15.0526 29.4458 15.1277 29.4807L15.1997 29.5141C15.3097 29.5662 15.5078 29.6583 15.5295 29.668C15.6022 29.7011 15.6946 29.735 15.8255 29.735C15.9556 29.735 16.0481 29.7011 16.121 29.668C16.1448 29.6575 16.3786 29.5484 16.4786 29.5018L16.5226 29.4807C16.5977 29.4458 16.6529 29.3572 16.6529 29.2718V28.2581C16.6529 28.1834 16.6172 28.1248 16.5531 28.0919C16.3746 28.0031 16.1965 27.9136 16.0187 27.8234C15.9577 27.793 15.8909 27.7776 15.8234 27.7786Z" fill="white"/>
</svg>
