<svg width="50" height="50" viewBox="0 0 50 50" fill="none" xmlns="http://www.w3.org/2000/svg">
<circle cx="25" cy="25" r="25" fill="#1E4BC6"/>
<path d="M45.7823 18.5894C45.3093 14.9332 43.985 11.6077 41.6642 9.17445C39.2047 6.87844 35.837 5.56821 32.1414 5.10027C28.5908 4.63233 26.1754 4.77584 26.1754 4.77584C26.1754 4.77584 23.76 4.68225 20.2095 5.10027C16.5202 5.56821 13.1588 6.87844 10.6992 9.17445C8.37846 11.6077 7.05409 14.9394 6.5811 18.5956C6.10811 22.1083 6.20271 24.4979 6.20271 24.4979C6.20271 24.4979 6.10812 26.8875 6.53696 30.4001C7.00995 34.0563 8.33431 37.3818 10.6551 39.8213C13.1209 42.1173 16.4823 43.4275 20.1779 43.8955C23.7285 44.3634 26.1439 44.2261 26.1439 44.2261C26.1439 44.2261 28.5593 44.3197 32.1098 43.8955C35.8054 43.4275 39.1668 42.1173 41.6327 39.8213C43.9534 37.388 45.2778 34.0563 45.7508 30.4001C46.2238 26.8875 46.085 24.4979 46.085 24.4979C46.085 24.4979 46.2742 22.1083 45.8013 18.5956" fill="#1E4BC6"/>
<path d="M12.2144 19.7962V30.0773H14.1658V27.1478H15.7814C16.3516 27.1478 16.8774 27.0549 17.3019 26.8691C17.7454 26.6771 18.1509 26.4108 18.4931 26.0764C18.8415 25.7481 19.1203 25.3517 19.304 24.912C19.6842 23.9892 19.6842 22.9549 19.304 22.0259C18.9175 21.1526 18.2016 20.4527 17.3083 20.0749C16.8268 19.8829 16.3072 19.79 15.7877 19.7962H12.2144ZM14.1151 21.518H15.6356C15.9144 21.518 16.1869 21.5613 16.4466 21.6604C16.681 21.7533 16.8901 21.8958 17.0675 22.0816C17.2196 22.2674 17.3526 22.4718 17.4477 22.6886C17.6377 23.1654 17.6377 23.6981 17.4477 24.175C17.3653 24.4041 17.2386 24.6085 17.0675 24.7819C16.8965 24.9615 16.681 25.104 16.4466 25.2031C16.1932 25.296 15.9208 25.3455 15.642 25.3455H14.1214L14.1151 21.518ZM24.1065 21.7967C23.568 21.7967 23.0358 21.8896 22.5352 22.0754C22.0601 22.2612 21.5849 22.4966 21.2047 22.8682C20.8119 23.2398 20.4888 23.6795 20.2544 24.1688C20.0136 24.6828 19.9249 25.2836 19.9249 25.9339C19.9186 26.5409 20.0516 27.1478 20.3051 27.699C20.5395 28.1883 20.8626 28.6281 21.2554 28.9997C21.6546 29.3341 22.0981 29.6004 22.5859 29.7924C23.0738 29.972 23.587 30.0711 24.1065 30.0711C24.626 30.0773 25.1456 29.9844 25.6271 29.7924C26.1023 29.5571 26.5331 29.2784 26.8182 28.9068V30.0711H28.7696V21.7967H26.8245V22.8682C26.4887 22.5275 26.0832 22.2612 25.6334 22.0754C25.2089 21.8896 24.6831 21.7967 24.1065 21.7967ZM29.4412 21.8401L32.8688 29.6995L31.1075 33.8367H33.1032L38.1021 21.8401H36.0557L33.8698 27.4699L31.494 21.8401H29.4412ZM24.4423 23.5618C24.7781 23.5618 25.1075 23.6114 25.4433 23.7972C25.7475 23.9087 26.0199 24.0883 26.2543 24.305C26.4951 24.4908 26.6345 24.7695 26.7802 25.0483C26.9259 25.327 26.9702 25.6552 26.9702 25.9773C26.9702 26.2993 26.9196 26.6276 26.7802 26.9063C26.6535 27.1788 26.4761 27.4327 26.2543 27.6495C26.0136 27.8848 25.7348 28.0211 25.4433 28.1636C25.1519 28.306 24.8224 28.3494 24.4423 28.3494C24.1002 28.3432 23.7644 28.2812 23.4413 28.1636C23.1561 28.0211 22.871 27.8848 22.6303 27.6495C22.4275 27.408 22.2565 27.1416 22.1108 26.8629C21.9714 26.5842 21.9207 26.256 21.9207 25.9339C21.9207 25.6119 21.9714 25.2836 22.1108 25.0049C22.2058 24.7262 22.3959 24.4908 22.6366 24.2617C22.8647 24.0387 23.1435 23.8653 23.4413 23.7476C23.7644 23.6238 24.1002 23.5556 24.4423 23.5618Z" fill="white"/>
</svg>
