<svg width="50" height="50" viewBox="0 0 50 50" fill="none" xmlns="http://www.w3.org/2000/svg">
<circle cx="25" cy="25" r="25" fill="#004785"/>
<path fill-rule="evenodd" clip-rule="evenodd" d="M31.4887 30.0986L30.0852 30.3458C29.3379 30.3458 29.3013 30.0187 29.3013 29.0777V23.1049H31.0619V21.3104H29.3013V18.0419L28.9957 18.2252L27.1467 19.3674V21.3104H25.8664V23.1049H27.1467V28.9771C27.1467 30.7463 27.1467 32.4232 29.7825 32.4232L31.7265 32.1008L31.7556 31.879L31.4887 30.0986ZM19.024 28.1743L19.0428 27.975L21.2819 28.3435L21.2452 28.5494C20.5797 32.4194 17.1167 32.5256 16.407 32.5256C12.4194 32.5256 11 29.5759 11 26.8141C11 21.4814 15.1361 21.0668 16.407 21.0668C17.2276 21.0668 19.3361 21.1872 20.4321 22.8021C20.879 23.4627 20.9649 23.8868 21.0423 24.2686L21.0572 24.3419L21.0939 24.5505L18.9206 25.107L18.8736 24.9294C18.538 23.6246 17.6093 23.0757 16.3825 23.0757C13.7082 23.0757 13.1677 25.3411 13.1677 26.7709C13.1677 28.2175 13.6725 30.5178 16.2528 30.5178C18.2889 30.5178 18.9074 29.1012 19.024 28.1743ZM22.2348 21.3103H24.1947H24.394V32.2793H22.2348V21.3103ZM33.8952 21.3103H35.8532H36.0534V32.2793H33.8952V21.3103Z" fill="white"/>
<path fill-rule="evenodd" clip-rule="evenodd" d="M23.4052 20.0498C24.2052 18.4837 26.5092 17.0605 29.0303 17.0605C31.5589 17.0605 33.924 18.4837 34.7324 20.0498H37.3109C36.4216 17.4393 33.0724 15 29.0604 15C25.0512 15 21.6963 17.4393 20.8108 20.0498H23.4052Z" fill="#EC1D24"/>
</svg>
