<svg width="50" height="50" viewBox="0 0 50 50" fill="none" xmlns="http://www.w3.org/2000/svg">
<circle cx="25" cy="25" r="25" fill="#696256"/>
<path fill-rule="evenodd" clip-rule="evenodd" d="M35.289 24.5519C33.3331 24.9454 32.6148 26.0717 32.0998 25.8101C31.6501 25.4437 32.1418 23.3586 32.2479 22.5198C32.3849 21.4204 30.9053 20.7492 30.4003 22.0982C29.9826 23.445 30.1793 28.2109 30.2721 29.0529C30.3705 29.9566 31.9529 29.9209 32.1197 29.1362C32.1695 28.8897 32.2976 28.373 32.6656 27.651C34.2447 24.6741 37.698 25.9842 37.3587 28.0736C36.7741 31.2732 30.8379 31.2051 30.0555 30.523C28.8842 29.6896 25.1746 27.2283 21.5899 24.8946C21.5943 24.7292 21.6009 24.5519 21.6086 24.3865C26.5957 21.4723 31.6192 18.5225 32.2479 17.9701C33.2391 17.0891 32.1418 15.5207 30.8699 16.527C30.0213 17.208 25.9934 19.8304 21.7401 22.5241C22.0297 19.2694 22.5446 17.3983 22.7711 16.5389C23.1922 14.9381 20.9003 14.3382 20.5102 15.9531C19.8638 18.6154 19.5058 21.1351 19.329 23.4353C16.9089 21.8842 14.8348 20.5741 14.0546 20.1601C11.7959 18.9516 11.5606 21.1697 12.4601 21.588C12.891 21.7945 15.1729 23.1716 17.972 24.8924C15.1563 26.6554 12.6413 28.1893 11.3738 28.9167C10.5318 29.6053 11.2567 30.523 12.1241 30.0117C13.5176 29.1362 16.2194 27.5483 19.203 25.7972C19.0881 30.4646 19.7422 33.8436 20.255 34.8954C20.9246 36.2476 22.0275 35.6575 21.8506 34.3895C21.612 31.5877 21.5247 29.1664 21.5346 27.09C25.8586 29.762 30.166 32.4536 30.5694 32.7043C31.5716 33.328 32.4977 32.6168 32.5838 32.1141C36.0713 31.7888 38.4936 31.1813 39.2726 28.4228C40.0738 25.6026 37.3653 24.1358 35.289 24.5519Z" fill="#FCB813"/>
</svg>
